<svg id="visual" viewBox="0 0 1920 1080" width="1920" height="1080" xmlns="http://www.w3.org/2000/svg" xmlns:xlink="http://www.w3.org/1999/xlink" version="1.1"><rect x="0" y="0" width="1920" height="1080" fill="#001220"></rect><defs><linearGradient id="grad1_0" x1="43.8%" y1="100%" x2="100%" y2="0%"><stop offset="14.444444444444446%" stop-color="#6762ff" stop-opacity="1"></stop><stop offset="85.55555555555554%" stop-color="#6762ff" stop-opacity="1"></stop></linearGradient></defs><defs><linearGradient id="grad1_1" x1="43.8%" y1="100%" x2="100%" y2="0%"><stop offset="14.444444444444446%" stop-color="#6762ff" stop-opacity="1"></stop><stop offset="85.55555555555554%" stop-color="#004fb6" stop-opacity="1"></stop></linearGradient></defs><defs><linearGradient id="grad1_2" x1="43.8%" y1="100%" x2="100%" y2="0%"><stop offset="14.444444444444446%" stop-color="#003268" stop-opacity="1"></stop><stop offset="85.55555555555554%" stop-color="#004fb6" stop-opacity="1"></stop></linearGradient></defs><defs><linearGradient id="grad1_3" x1="43.8%" y1="100%" x2="100%" y2="0%"><stop offset="14.444444444444446%" stop-color="#003268" stop-opacity="1"></stop><stop offset="85.55555555555554%" stop-color="#001220" stop-opacity="1"></stop></linearGradient></defs><defs><linearGradient id="grad2_0" x1="0%" y1="100%" x2="56.3%" y2="0%"><stop offset="14.444444444444446%" stop-color="#6762ff" stop-opacity="1"></stop><stop offset="85.55555555555554%" stop-color="#6762ff" stop-opacity="1"></stop></linearGradient></defs><defs><linearGradient id="grad2_1" x1="0%" y1="100%" x2="56.3%" y2="0%"><stop offset="14.444444444444446%" stop-color="#004fb6" stop-opacity="1"></stop><stop offset="85.55555555555554%" stop-color="#6762ff" stop-opacity="1"></stop></linearGradient></defs><defs><linearGradient id="grad2_2" x1="0%" y1="100%" x2="56.3%" y2="0%"><stop offset="14.444444444444446%" stop-color="#004fb6" stop-opacity="1"></stop><stop offset="85.55555555555554%" stop-color="#003268" stop-opacity="1"></stop></linearGradient></defs><defs><linearGradient id="grad2_3" x1="0%" y1="100%" x2="56.3%" y2="0%"><stop offset="14.444444444444446%" stop-color="#001220" stop-opacity="1"></stop><stop offset="85.55555555555554%" stop-color="#003268" stop-opacity="1"></stop></linearGradient></defs><g transform="translate(1920, 1080)"><path d="M-324 0C-303.6 -36.8 -283.2 -73.6 -267.9 -111C-252.6 -148.4 -242.4 -186.3 -219.9 -219.9C-197.4 -253.5 -162.7 -282.7 -124 -299.3C-85.3 -316 -42.6 -320 0 -324L0 0Z" fill="#002343"></path><path d="M-243 0C-227.7 -27.6 -212.4 -55.2 -200.9 -83.2C-189.5 -111.3 -181.8 -139.7 -164.9 -164.9C-148.1 -190.1 -122 -212 -93 -224.5C-64 -237 -32 -240 0 -243L0 0Z" fill="#00418f"></path><path d="M-162 0C-151.8 -18.4 -141.6 -36.8 -134 -55.5C-126.3 -74.2 -121.2 -93.2 -110 -110C-98.7 -126.7 -81.3 -141.4 -62 -149.7C-42.6 -158 -21.3 -160 0 -162L0 0Z" fill="#305adc"></path><path d="M-81 0C-75.9 -9.2 -70.8 -18.4 -67 -27.7C-63.2 -37.1 -60.6 -46.6 -55 -55C-49.4 -63.4 -40.7 -70.7 -31 -74.8C-21.3 -79 -10.7 -80 0 -81L0 0Z" fill="#6762ff"></path></g><g transform="translate(0, 0)"><path d="M324 0C291.9 33.2 259.8 66.4 242.1 100.3C224.4 134.2 221.1 168.8 205.1 205.1C189 241.3 160.3 279.2 124 299.3C87.7 319.4 43.8 321.7 0 324L0 0Z" fill="#002343"></path><path d="M243 0C218.9 24.9 194.8 49.8 181.5 75.2C168.3 100.6 165.8 126.6 153.8 153.8C141.8 181 120.2 209.4 93 224.5C65.8 239.6 32.9 241.3 0 243L0 0Z" fill="#00418f"></path><path d="M162 0C145.9 16.6 129.9 33.2 121 50.1C112.2 67.1 110.5 84.4 102.5 102.5C94.5 120.7 80.1 139.6 62 149.7C43.8 159.7 21.9 160.9 0 162L0 0Z" fill="#305adc"></path><path d="M81 0C73 8.3 64.9 16.6 60.5 25.1C56.1 33.5 55.3 42.2 51.3 51.3C47.3 60.3 40.1 69.8 31 74.8C21.9 79.9 11 80.4 0 81L0 0Z" fill="#6762ff"></path></g></svg>