<?xml version="1.0" standalone="no"?>
<!DOCTYPE svg PUBLIC "-//W3C//DTD SVG 20010904//EN"
 "http://www.w3.org/TR/2001/REC-SVG-20010904/DTD/svg10.dtd">
<svg version="1.0" xmlns="http://www.w3.org/2000/svg"
 width="500.000000pt" height="500.000000pt" viewBox="0 0 500.000000 500.000000"
 preserveAspectRatio="xMidYMid meet">
<metadata>
Created by potrace 1.14, written by Peter Selinger 2001-2017
</metadata>
<g transform="translate(0.000000,500.000000) scale(0.100000,-0.100000)"
fill="#000000" stroke="none">
<path d="M0 2500 l0 -2500 2500 0 2500 0 0 2500 0 2500 -2500 0 -2500 0 0
-2500z m1875 594 c50 -9 106 -18 125 -21 85 -11 206 -105 264 -205 29 -49 61
-163 50 -179 -3 -5 -91 -9 -196 -9 l-190 0 -39 34 c-53 45 -114 61 -234 61
-112 0 -166 -14 -209 -54 -42 -38 -56 -80 -56 -169 0 -89 14 -134 56 -176 50
-49 87 -59 224 -60 129 0 181 10 219 43 41 36 27 41 -107 41 -86 0 -132 4
-140 12 -14 14 -17 179 -3 194 6 5 143 8 346 6 l335 -3 -2 -282 -3 -282 -108
-3 -107 -3 -11 27 c-5 15 -13 47 -16 71 -3 24 -8 43 -10 43 -3 0 -23 -15 -46
-33 -50 -40 -102 -71 -137 -81 -115 -33 -144 -37 -265 -38 -235 -1 -383 50
-497 169 -67 71 -103 156 -120 291 -10 80 -10 108 4 189 41 238 181 369 448
418 97 18 320 17 425 -1z m-1050 -529 l0 -520 -189 -3 c-145 -2 -191 1 -198
10 -11 19 -10 1022 1 1034 6 5 85 7 198 4 l188 -5 0 -520z m2043 525 c9 0 12
-63 12 -282 0 -156 3 -313 7 -350 l6 -68 46 0 c26 0 51 -4 57 -10 6 -6 125
-11 294 -12 l285 -3 3 -149 c2 -99 -1 -153 -9 -162 -10 -12 -311 -21 -774 -24
-108 0 -290 11 -298 19 -11 11 -9 1034 2 1041 7 4 172 4 369 0z"/>
</g>
</svg>
