<svg id="canvas" height="auto" xmlns="http://www.w3.org/2000/svg" version="1.1" xmlns:xlink="http://www.w3.org/1999/xlink" xmlns:svgjs="http://svgjs.dev/svgjs" viewBox="0 0 900 512" width="auto" style="width: auto; height: auto;"><rect width="900" height="512" fill="#000000ff"/><rect width="40" height="50" transform="matrix(1,0.5773502691896257,0,1,0,-11.547005383792516)" stroke-linejoin="bevel" stroke-width="2" stroke="#000000ff" fill="#14aaf5ff" x="0" y="10"/><rect width="40" height="50" transform="matrix(1,-0.5773502691896257,0,1,0,34.64101615137754)" stroke-linejoin="bevel" stroke-width="2" stroke="#000000ff" fill="#fcbd01ff" x="40" y="10"/><rect width="40" height="50" transform="matrix(1,-0.5773502691896257,0,1,0,80.82903768654761)" stroke-linejoin="bevel" stroke-width="2" stroke="#000000ff" fill="#14aaf5ff" x="120" y="10"/><rect width="40" height="50" transform="matrix(1,0.5773502691896257,0,1,0,-103.92304845413264)" stroke-linejoin="bevel" stroke-width="2" stroke="#000000ff" fill="#fcbd01ff" x="160" y="10"/><rect width="40" height="50" transform="matrix(1,-0.5773502691896257,0,1,0,127.01705922171766)" stroke-linejoin="bevel" stroke-width="2" stroke="#000000ff" fill="#ffcab3ff" x="200" y="10"/><rect width="40" height="50" transform="matrix(1,0.5773502691896257,0,1,0,-150.11106998930268)" stroke-linejoin="bevel" stroke-width="2" stroke="#000000ff" fill="#ffcab3ff" x="240" y="10"/><rect width="40" height="50" transform="matrix(1,0.5773502691896257,0,1,0,-196.29909152447274)" stroke-linejoin="bevel" stroke-width="2" stroke="#000000ff" fill="#fcbd01ff" x="320" y="10"/><rect width="40" height="50" transform="matrix(1,0.5773502691896257,0,1,0,-242.4871130596428)" stroke-linejoin="bevel" stroke-width="2" stroke="#000000ff" fill="#ffffffff" x="400" y="10"/><rect width="40" height="50" transform="matrix(1,-0.5773502691896257,0,1,0,265.5811238272278)" stroke-linejoin="bevel" stroke-width="2" stroke="#000000ff" fill="#ffcab3ff" x="440" y="10"/><rect width="40" height="50" transform="matrix(1,0.5773502691896257,0,1,0,-288.67513459481285)" stroke-linejoin="bevel" stroke-width="2" stroke="#000000ff" fill="#ffffffff" x="480" y="10"/><rect width="40" height="50" transform="matrix(1,-0.5773502691896257,0,1,0,311.7691453623979)" stroke-linejoin="bevel" stroke-width="2" stroke="#000000ff" fill="#ffcab3ff" x="520" y="10"/><rect width="40" height="50" transform="matrix(1,0.5773502691896257,0,1,0,-334.86315612998294)" stroke-linejoin="bevel" stroke-width="2" stroke="#000000ff" fill="#14aaf5ff" x="560" y="10"/><rect width="40" height="50" transform="matrix(1,0.5773502691896257,0,1,0,-381.051177665153)" stroke-linejoin="bevel" stroke-width="2" stroke="#000000ff" fill="#f0f2f3ff" x="640" y="10"/><rect width="40" height="50" transform="matrix(1,-0.5773502691896257,0,1,0,404.145188432738)" stroke-linejoin="bevel" stroke-width="2" stroke="#000000ff" fill="#ffcab3ff" x="680" y="10"/><rect width="40" height="50" transform="matrix(1,0.5773502691896257,0,1,0,-427.239199200323)" stroke-linejoin="bevel" stroke-width="2" stroke="#000000ff" fill="#fcbd01ff" x="720" y="10"/><rect width="40" height="50" transform="matrix(1,-0.5773502691896257,0,1,0,450.3332099679081)" stroke-linejoin="bevel" stroke-width="2" stroke="#000000ff" fill="#fcbd01ff" x="760" y="10"/><rect width="40" height="50" transform="matrix(1,0.5773502691896257,0,1,0,-473.4272207354931)" stroke-linejoin="bevel" stroke-width="2" stroke="#000000ff" fill="#ffffffff" x="800" y="10"/><rect width="40" height="50" transform="matrix(1,-0.5773502691896257,0,1,0,496.5212315030781)" stroke-linejoin="bevel" stroke-width="2" stroke="#000000ff" fill="#ffffffff" x="840" y="10"/><rect width="40" height="50" transform="matrix(1,0.5773502691896257,0,1,0,-519.6152422706632)" stroke-linejoin="bevel" stroke-width="2" stroke="#000000ff" fill="#14aaf5ff" x="880" y="10"/><rect width="40" height="50" transform="matrix(1,-0.5773502691896257,0,1,0,11.54700538379251)" stroke-linejoin="bevel" stroke-width="2" stroke="#000000ff" fill="#ff5263ff" x="0" y="83.09401076758503"/><rect width="40" height="50" transform="matrix(1,0.5773502691896257,0,1,0,-34.64101615137754)" stroke-linejoin="bevel" stroke-width="2" stroke="#000000ff" fill="#796effff" x="40" y="83.09401076758503"/><rect width="40" height="50" transform="matrix(1,-0.5773502691896257,0,1,0,57.735026918962575)" stroke-linejoin="bevel" stroke-width="2" stroke="#000000ff" fill="#ff5263ff" x="80" y="83.09401076758503"/><rect width="40" height="50" transform="matrix(1,0.5773502691896257,0,1,0,-80.82903768654761)" stroke-linejoin="bevel" stroke-width="2" stroke="#000000ff" fill="#fcbd01ff" x="120" y="83.09401076758503"/><rect width="40" height="50" transform="matrix(1,-0.5773502691896257,0,1,0,103.92304845413263)" stroke-linejoin="bevel" stroke-width="2" stroke="#000000ff" fill="#ff5263ff" x="160" y="83.09401076758503"/><rect width="40" height="50" transform="matrix(1,0.5773502691896257,0,1,0,-127.01705922171764)" stroke-linejoin="bevel" stroke-width="2" stroke="#000000ff" fill="#ffffffff" x="200" y="83.09401076758503"/><rect width="40" height="50" transform="matrix(1,-0.5773502691896257,0,1,0,150.11106998930268)" stroke-linejoin="bevel" stroke-width="2" stroke="#000000ff" fill="#ffcab3ff" x="240" y="83.09401076758503"/><rect width="40" height="50" transform="matrix(1,0.5773502691896257,0,1,0,-173.20508075688775)" stroke-linejoin="bevel" stroke-width="2" stroke="#000000ff" fill="#ffcab3ff" x="280" y="83.09401076758503"/><rect width="40" height="50" transform="matrix(1,-0.5773502691896257,0,1,0,196.29909152447274)" stroke-linejoin="bevel" stroke-width="2" stroke="#000000ff" fill="#14aaf5ff" x="320" y="83.09401076758503"/><rect width="40" height="50" transform="matrix(1,0.5773502691896257,0,1,0,-219.3931022920578)" stroke-linejoin="bevel" stroke-width="2" stroke="#000000ff" fill="#ffcab3ff" x="360" y="83.09401076758503"/><rect width="40" height="50" transform="matrix(1,0.5773502691896257,0,1,0,-265.5811238272278)" stroke-linejoin="bevel" stroke-width="2" stroke="#000000ff" fill="#f0f2f3ff" x="440" y="83.09401076758503"/><rect width="40" height="50" transform="matrix(1,-0.5773502691896257,0,1,0,288.67513459481285)" stroke-linejoin="bevel" stroke-width="2" stroke="#000000ff" fill="#14aaf5ff" x="480" y="83.09401076758503"/><rect width="40" height="50" transform="matrix(1,0.5773502691896257,0,1,0,-311.7691453623979)" stroke-linejoin="bevel" stroke-width="2" stroke="#000000ff" fill="#14aaf5ff" x="520" y="83.09401076758503"/><rect width="40" height="50" transform="matrix(1,-0.5773502691896257,0,1,0,334.86315612998294)" stroke-linejoin="bevel" stroke-width="2" stroke="#000000ff" fill="#ffffffff" x="560" y="83.09401076758503"/><rect width="40" height="50" transform="matrix(1,0.5773502691896257,0,1,0,-357.95716689756796)" stroke-linejoin="bevel" stroke-width="2" stroke="#000000ff" fill="#f0f2f3ff" x="600" y="83.09401076758503"/><rect width="40" height="50" transform="matrix(1,-0.5773502691896257,0,1,0,381.051177665153)" stroke-linejoin="bevel" stroke-width="2" stroke="#000000ff" fill="#14aaf5ff" x="640" y="83.09401076758503"/><rect width="40" height="50" transform="matrix(1,-0.5773502691896257,0,1,0,427.239199200323)" stroke-linejoin="bevel" stroke-width="2" stroke="#000000ff" fill="#f0f2f3ff" x="720" y="83.09401076758503"/><rect width="40" height="50" transform="matrix(1,0.5773502691896257,0,1,0,-450.33320996790815)" stroke-linejoin="bevel" stroke-width="2" stroke="#000000ff" fill="#ffcab3ff" x="760" y="83.09401076758503"/><rect width="40" height="50" transform="matrix(1,0.5773502691896257,0,1,0,-496.5212315030782)" stroke-linejoin="bevel" stroke-width="2" stroke="#000000ff" fill="#796effff" x="840" y="83.09401076758503"/><rect width="40" height="50" transform="matrix(1,-0.5773502691896257,0,1,0,519.6152422706632)" stroke-linejoin="bevel" stroke-width="2" stroke="#000000ff" fill="#ff5263ff" x="880" y="83.09401076758503"/><rect width="40" height="50" transform="matrix(1,0.5773502691896257,0,1,0,-11.54700538379251)" stroke-linejoin="bevel" stroke-width="2" stroke="#000000ff" fill="#ffcab3ff" x="0" y="156.18802153517007"/><rect width="40" height="50" transform="matrix(1,-0.5773502691896257,0,1,0,34.641016151377556)" stroke-linejoin="bevel" stroke-width="2" stroke="#000000ff" fill="#ff5263ff" x="40" y="156.18802153517007"/><rect width="40" height="50" transform="matrix(1,0.5773502691896257,0,1,0,-57.735026918962575)" stroke-linejoin="bevel" stroke-width="2" stroke="#000000ff" fill="#fcbd01ff" x="80" y="156.18802153517007"/><rect width="40" height="50" transform="matrix(1,0.5773502691896257,0,1,0,-103.92304845413261)" stroke-linejoin="bevel" stroke-width="2" stroke="#000000ff" fill="#ffcab3ff" x="160" y="156.18802153517007"/><rect width="40" height="50" transform="matrix(1,-0.5773502691896257,0,1,0,127.01705922171766)" stroke-linejoin="bevel" stroke-width="2" stroke="#000000ff" fill="#ff5263ff" x="200" y="156.18802153517007"/><rect width="40" height="50" transform="matrix(1,0.5773502691896257,0,1,0,-150.11106998930265)" stroke-linejoin="bevel" stroke-width="2" stroke="#000000ff" fill="#796effff" x="240" y="156.18802153517007"/><rect width="40" height="50" transform="matrix(1,-0.5773502691896257,0,1,0,173.20508075688772)" stroke-linejoin="bevel" stroke-width="2" stroke="#000000ff" fill="#ff5263ff" x="280" y="156.18802153517007"/><rect width="40" height="50" transform="matrix(1,0.5773502691896257,0,1,0,-196.29909152447274)" stroke-linejoin="bevel" stroke-width="2" stroke="#000000ff" fill="#14aaf5ff" x="320" y="156.18802153517007"/><rect width="40" height="50" transform="matrix(1,-0.5773502691896257,0,1,0,219.3931022920578)" stroke-linejoin="bevel" stroke-width="2" stroke="#000000ff" fill="#f0f2f3ff" x="360" y="156.18802153517007"/><rect width="40" height="50" transform="matrix(1,0.5773502691896257,0,1,0,-242.48711305964284)" stroke-linejoin="bevel" stroke-width="2" stroke="#000000ff" fill="#ffffffff" x="400" y="156.18802153517007"/><rect width="40" height="50" transform="matrix(1,-0.5773502691896257,0,1,0,265.5811238272278)" stroke-linejoin="bevel" stroke-width="2" stroke="#000000ff" fill="#ffcab3ff" x="440" y="156.18802153517007"/><rect width="40" height="50" transform="matrix(1,0.5773502691896257,0,1,0,-288.6751345948129)" stroke-linejoin="bevel" stroke-width="2" stroke="#000000ff" fill="#ffcab3ff" x="480" y="156.18802153517007"/><rect width="40" height="50" transform="matrix(1,-0.5773502691896257,0,1,0,311.7691453623979)" stroke-linejoin="bevel" stroke-width="2" stroke="#000000ff" fill="#ff5263ff" x="520" y="156.18802153517007"/><rect width="40" height="50" transform="matrix(1,0.5773502691896257,0,1,0,-334.86315612998294)" stroke-linejoin="bevel" stroke-width="2" stroke="#000000ff" fill="#f0f2f3ff" x="560" y="156.18802153517007"/><rect width="40" height="50" transform="matrix(1,0.5773502691896257,0,1,0,-381.051177665153)" stroke-linejoin="bevel" stroke-width="2" stroke="#000000ff" fill="#ff5263ff" x="640" y="156.18802153517007"/><rect width="40" height="50" transform="matrix(1,0.5773502691896257,0,1,0,-427.239199200323)" stroke-linejoin="bevel" stroke-width="2" stroke="#000000ff" fill="#ffcab3ff" x="720" y="156.18802153517007"/><rect width="40" height="50" transform="matrix(1,-0.5773502691896257,0,1,0,450.33320996790803)" stroke-linejoin="bevel" stroke-width="2" stroke="#000000ff" fill="#ffcab3ff" x="760" y="156.18802153517007"/><rect width="40" height="50" transform="matrix(1,0.5773502691896257,0,1,0,-473.42722073549317)" stroke-linejoin="bevel" stroke-width="2" stroke="#000000ff" fill="#fcbd01ff" x="800" y="156.18802153517007"/><rect width="40" height="50" transform="matrix(1,-0.5773502691896257,0,1,0,496.52123150307807)" stroke-linejoin="bevel" stroke-width="2" stroke="#000000ff" fill="#f0f2f3ff" x="840" y="156.18802153517007"/><rect width="40" height="50" transform="matrix(1,-0.5773502691896257,0,1,0,11.54700538379251)" stroke-linejoin="bevel" stroke-width="2" stroke="#000000ff" fill="#fcbd01ff" x="0" y="229.2820323027551"/><rect width="40" height="50" transform="matrix(1,0.5773502691896257,0,1,0,-34.64101615137753)" stroke-linejoin="bevel" stroke-width="2" stroke="#000000ff" fill="#fcbd01ff" x="40" y="229.2820323027551"/><rect width="40" height="50" transform="matrix(1,-0.5773502691896257,0,1,0,57.735026918962575)" stroke-linejoin="bevel" stroke-width="2" stroke="#000000ff" fill="#ff5263ff" x="80" y="229.2820323027551"/><rect width="40" height="50" transform="matrix(1,0.5773502691896257,0,1,0,-80.82903768654762)" stroke-linejoin="bevel" stroke-width="2" stroke="#000000ff" fill="#fcbd01ff" x="120" y="229.2820323027551"/><rect width="40" height="50" transform="matrix(1,0.5773502691896257,0,1,0,-127.01705922171766)" stroke-linejoin="bevel" stroke-width="2" stroke="#000000ff" fill="#ffcab3ff" x="200" y="229.2820323027551"/><rect width="40" height="50" transform="matrix(1,0.5773502691896257,0,1,0,-173.20508075688775)" stroke-linejoin="bevel" stroke-width="2" stroke="#000000ff" fill="#14aaf5ff" x="280" y="229.2820323027551"/><rect width="40" height="50" transform="matrix(1,-0.5773502691896257,0,1,0,196.29909152447274)" stroke-linejoin="bevel" stroke-width="2" stroke="#000000ff" fill="#ffcab3ff" x="320" y="229.2820323027551"/><rect width="40" height="50" transform="matrix(1,0.5773502691896257,0,1,0,-219.3931022920578)" stroke-linejoin="bevel" stroke-width="2" stroke="#000000ff" fill="#f0f2f3ff" x="360" y="229.2820323027551"/><rect width="40" height="50" transform="matrix(1,-0.5773502691896257,0,1,0,242.4871130596428)" stroke-linejoin="bevel" stroke-width="2" stroke="#000000ff" fill="#796effff" x="400" y="229.2820323027551"/><rect width="40" height="50" transform="matrix(1,0.5773502691896257,0,1,0,-265.5811238272278)" stroke-linejoin="bevel" stroke-width="2" stroke="#000000ff" fill="#ffcab3ff" x="440" y="229.2820323027551"/><rect width="40" height="50" transform="matrix(1,-0.5773502691896257,0,1,0,288.67513459481285)" stroke-linejoin="bevel" stroke-width="2" stroke="#000000ff" fill="#f0f2f3ff" x="480" y="229.2820323027551"/><rect width="40" height="50" transform="matrix(1,0.5773502691896257,0,1,0,-311.769145362398)" stroke-linejoin="bevel" stroke-width="2" stroke="#000000ff" fill="#fcbd01ff" x="520" y="229.2820323027551"/><rect width="40" height="50" transform="matrix(1,-0.5773502691896257,0,1,0,334.86315612998294)" stroke-linejoin="bevel" stroke-width="2" stroke="#000000ff" fill="#14aaf5ff" x="560" y="229.2820323027551"/><rect width="40" height="50" transform="matrix(1,0.5773502691896257,0,1,0,-357.957166897568)" stroke-linejoin="bevel" stroke-width="2" stroke="#000000ff" fill="#ff5263ff" x="600" y="229.2820323027551"/><rect width="40" height="50" transform="matrix(1,-0.5773502691896257,0,1,0,381.051177665153)" stroke-linejoin="bevel" stroke-width="2" stroke="#000000ff" fill="#ffffffff" x="640" y="229.2820323027551"/><rect width="40" height="50" transform="matrix(1,0.5773502691896257,0,1,0,-404.14518843273805)" stroke-linejoin="bevel" stroke-width="2" stroke="#000000ff" fill="#f0f2f3ff" x="680" y="229.2820323027551"/><rect width="40" height="50" transform="matrix(1,-0.5773502691896257,0,1,0,473.4272207354931)" stroke-linejoin="bevel" stroke-width="2" stroke="#000000ff" fill="#ffcab3ff" x="800" y="229.2820323027551"/><rect width="40" height="50" transform="matrix(1,0.5773502691896257,0,1,0,-496.5212315030781)" stroke-linejoin="bevel" stroke-width="2" stroke="#000000ff" fill="#ffffffff" x="840" y="229.2820323027551"/><rect width="40" height="50" transform="matrix(1,-0.5773502691896257,0,1,0,519.6152422706632)" stroke-linejoin="bevel" stroke-width="2" stroke="#000000ff" fill="#14aaf5ff" x="880" y="229.2820323027551"/><rect width="40" height="50" transform="matrix(1,0.5773502691896257,0,1,0,-11.54700538379251)" stroke-linejoin="bevel" stroke-width="2" stroke="#000000ff" fill="#796effff" x="0" y="302.37604307034013"/><rect width="40" height="50" transform="matrix(1,-0.5773502691896257,0,1,0,34.64101615137753)" stroke-linejoin="bevel" stroke-width="2" stroke="#000000ff" fill="#ff5263ff" x="40" y="302.37604307034013"/><rect width="40" height="50" transform="matrix(1,0.5773502691896257,0,1,0,-57.73502691896255)" stroke-linejoin="bevel" stroke-width="2" stroke="#000000ff" fill="#f0f2f3ff" x="80" y="302.37604307034013"/><rect width="40" height="50" transform="matrix(1,-0.5773502691896257,0,1,0,80.82903768654762)" stroke-linejoin="bevel" stroke-width="2" stroke="#000000ff" fill="#796effff" x="120" y="302.37604307034013"/><rect width="40" height="50" transform="matrix(1,0.5773502691896257,0,1,0,-103.92304845413264)" stroke-linejoin="bevel" stroke-width="2" stroke="#000000ff" fill="#f0f2f3ff" x="160" y="302.37604307034013"/><rect width="40" height="50" transform="matrix(1,-0.5773502691896257,0,1,0,127.01705922171766)" stroke-linejoin="bevel" stroke-width="2" stroke="#000000ff" fill="#14aaf5ff" x="200" y="302.37604307034013"/><rect width="40" height="50" transform="matrix(1,0.5773502691896257,0,1,0,-150.11106998930268)" stroke-linejoin="bevel" stroke-width="2" stroke="#000000ff" fill="#ff5263ff" x="240" y="302.37604307034013"/><rect width="40" height="50" transform="matrix(1,-0.5773502691896257,0,1,0,173.20508075688772)" stroke-linejoin="bevel" stroke-width="2" stroke="#000000ff" fill="#fcbd01ff" x="280" y="302.37604307034013"/><rect width="40" height="50" transform="matrix(1,0.5773502691896257,0,1,0,-196.29909152447277)" stroke-linejoin="bevel" stroke-width="2" stroke="#000000ff" fill="#f0f2f3ff" x="320" y="302.37604307034013"/><rect width="40" height="50" transform="matrix(1,-0.5773502691896257,0,1,0,219.3931022920578)" stroke-linejoin="bevel" stroke-width="2" stroke="#000000ff" fill="#796effff" x="360" y="302.37604307034013"/><rect width="40" height="50" transform="matrix(1,-0.5773502691896257,0,1,0,265.5811238272278)" stroke-linejoin="bevel" stroke-width="2" stroke="#000000ff" fill="#f0f2f3ff" x="440" y="302.37604307034013"/><rect width="40" height="50" transform="matrix(1,0.5773502691896257,0,1,0,-288.67513459481285)" stroke-linejoin="bevel" stroke-width="2" stroke="#000000ff" fill="#ffcab3ff" x="480" y="302.37604307034013"/><rect width="40" height="50" transform="matrix(1,-0.5773502691896257,0,1,0,311.7691453623979)" stroke-linejoin="bevel" stroke-width="2" stroke="#000000ff" fill="#ff5263ff" x="520" y="302.37604307034013"/><rect width="40" height="50" transform="matrix(1,-0.5773502691896257,0,1,0,357.95716689756796)" stroke-linejoin="bevel" stroke-width="2" stroke="#000000ff" fill="#fcbd01ff" x="600" y="302.37604307034013"/><rect width="40" height="50" transform="matrix(1,0.5773502691896257,0,1,0,-381.05117766515303)" stroke-linejoin="bevel" stroke-width="2" stroke="#000000ff" fill="#f0f2f3ff" x="640" y="302.37604307034013"/><rect width="40" height="50" transform="matrix(1,-0.5773502691896257,0,1,0,404.145188432738)" stroke-linejoin="bevel" stroke-width="2" stroke="#000000ff" fill="#ffcab3ff" x="680" y="302.37604307034013"/><rect width="40" height="50" transform="matrix(1,0.5773502691896257,0,1,0,-427.23919920032307)" stroke-linejoin="bevel" stroke-width="2" stroke="#000000ff" fill="#f0f2f3ff" x="720" y="302.37604307034013"/><rect width="40" height="50" transform="matrix(1,-0.5773502691896257,0,1,0,450.3332099679081)" stroke-linejoin="bevel" stroke-width="2" stroke="#000000ff" fill="#fcbd01ff" x="760" y="302.37604307034013"/><rect width="40" height="50" transform="matrix(1,0.5773502691896257,0,1,0,-473.4272207354931)" stroke-linejoin="bevel" stroke-width="2" stroke="#000000ff" fill="#ff5263ff" x="800" y="302.37604307034013"/><rect width="40" height="50" transform="matrix(1,0.5773502691896257,0,1,0,-519.6152422706632)" stroke-linejoin="bevel" stroke-width="2" stroke="#000000ff" fill="#ffcab3ff" x="880" y="302.37604307034013"/><rect width="40" height="50" transform="matrix(1,-0.5773502691896257,0,1,0,11.54700538379251)" stroke-linejoin="bevel" stroke-width="2" stroke="#000000ff" fill="#14aaf5ff" x="0" y="375.47005383792515"/><rect width="40" height="50" transform="matrix(1,0.5773502691896257,0,1,0,-34.64101615137753)" stroke-linejoin="bevel" stroke-width="2" stroke="#000000ff" fill="#ffffffff" x="40" y="375.47005383792515"/><rect width="40" height="50" transform="matrix(1,0.5773502691896257,0,1,0,-80.82903768654762)" stroke-linejoin="bevel" stroke-width="2" stroke="#000000ff" fill="#ff5263ff" x="120" y="375.47005383792515"/><rect width="40" height="50" transform="matrix(1,-0.5773502691896257,0,1,0,103.92304845413264)" stroke-linejoin="bevel" stroke-width="2" stroke="#000000ff" fill="#14aaf5ff" x="160" y="375.47005383792515"/><rect width="40" height="50" transform="matrix(1,0.5773502691896257,0,1,0,-127.0170592217176)" stroke-linejoin="bevel" stroke-width="2" stroke="#000000ff" fill="#796effff" x="200" y="375.47005383792515"/><rect width="40" height="50" transform="matrix(1,-0.5773502691896257,0,1,0,150.11106998930268)" stroke-linejoin="bevel" stroke-width="2" stroke="#000000ff" fill="#14aaf5ff" x="240" y="375.47005383792515"/><rect width="40" height="50" transform="matrix(1,0.5773502691896257,0,1,0,-173.20508075688775)" stroke-linejoin="bevel" stroke-width="2" stroke="#000000ff" fill="#ff5263ff" x="280" y="375.47005383792515"/><rect width="40" height="50" transform="matrix(1,-0.5773502691896257,0,1,0,196.29909152447274)" stroke-linejoin="bevel" stroke-width="2" stroke="#000000ff" fill="#ff5263ff" x="320" y="375.47005383792515"/><rect width="40" height="50" transform="matrix(1,0.5773502691896257,0,1,0,-219.3931022920578)" stroke-linejoin="bevel" stroke-width="2" stroke="#000000ff" fill="#ffffffff" x="360" y="375.47005383792515"/><rect width="40" height="50" transform="matrix(1,-0.5773502691896257,0,1,0,242.4871130596428)" stroke-linejoin="bevel" stroke-width="2" stroke="#000000ff" fill="#ffcab3ff" x="400" y="375.47005383792515"/><rect width="40" height="50" transform="matrix(1,0.5773502691896257,0,1,0,-265.5811238272278)" stroke-linejoin="bevel" stroke-width="2" stroke="#000000ff" fill="#ff5263ff" x="440" y="375.47005383792515"/><rect width="40" height="50" transform="matrix(1,-0.5773502691896257,0,1,0,288.67513459481285)" stroke-linejoin="bevel" stroke-width="2" stroke="#000000ff" fill="#796effff" x="480" y="375.47005383792515"/><rect width="40" height="50" transform="matrix(1,-0.5773502691896257,0,1,0,334.86315612998294)" stroke-linejoin="bevel" stroke-width="2" stroke="#000000ff" fill="#14aaf5ff" x="560" y="375.47005383792515"/><rect width="40" height="50" transform="matrix(1,0.5773502691896257,0,1,0,-357.957166897568)" stroke-linejoin="bevel" stroke-width="2" stroke="#000000ff" fill="#f0f2f3ff" x="600" y="375.47005383792515"/><rect width="40" height="50" transform="matrix(1,-0.5773502691896257,0,1,0,381.051177665153)" stroke-linejoin="bevel" stroke-width="2" stroke="#000000ff" fill="#ff5263ff" x="640" y="375.47005383792515"/><rect width="40" height="50" transform="matrix(1,0.5773502691896257,0,1,0,-404.14518843273805)" stroke-linejoin="bevel" stroke-width="2" stroke="#000000ff" fill="#fcbd01ff" x="680" y="375.47005383792515"/><rect width="40" height="50" transform="matrix(1,-0.5773502691896257,0,1,0,473.4272207354931)" stroke-linejoin="bevel" stroke-width="2" stroke="#000000ff" fill="#796effff" x="800" y="375.47005383792515"/><rect width="40" height="50" transform="matrix(1,0.5773502691896257,0,1,0,-496.5212315030781)" stroke-linejoin="bevel" stroke-width="2" stroke="#000000ff" fill="#14aaf5ff" x="840" y="375.47005383792515"/><rect width="40" height="50" transform="matrix(1,-0.5773502691896257,0,1,0,519.6152422706632)" stroke-linejoin="bevel" stroke-width="2" stroke="#000000ff" fill="#14aaf5ff" x="880" y="375.47005383792515"/><rect width="40" height="50" transform="matrix(1,0.5773502691896257,0,1,0,-11.54700538379251)" stroke-linejoin="bevel" stroke-width="2" stroke="#000000ff" fill="#14aaf5ff" x="0" y="448.56406460551017"/><rect width="40" height="50" transform="matrix(1,-0.5773502691896257,0,1,0,34.64101615137753)" stroke-linejoin="bevel" stroke-width="2" stroke="#000000ff" fill="#ffcab3ff" x="40" y="448.56406460551017"/><rect width="40" height="50" transform="matrix(1,0.5773502691896257,0,1,0,-57.73502691896255)" stroke-linejoin="bevel" stroke-width="2" stroke="#000000ff" fill="#ffcab3ff" x="80" y="448.56406460551017"/><rect width="40" height="50" transform="matrix(1,-0.5773502691896257,0,1,0,80.82903768654762)" stroke-linejoin="bevel" stroke-width="2" stroke="#000000ff" fill="#14aaf5ff" x="120" y="448.56406460551017"/><rect width="40" height="50" transform="matrix(1,0.5773502691896257,0,1,0,-103.92304845413258)" stroke-linejoin="bevel" stroke-width="2" stroke="#000000ff" fill="#ff5263ff" x="160" y="448.56406460551017"/><rect width="40" height="50" transform="matrix(1,-0.5773502691896257,0,1,0,127.01705922171766)" stroke-linejoin="bevel" stroke-width="2" stroke="#000000ff" fill="#f0f2f3ff" x="200" y="448.56406460551017"/><rect width="40" height="50" transform="matrix(1,0.5773502691896257,0,1,0,-150.11106998930262)" stroke-linejoin="bevel" stroke-width="2" stroke="#000000ff" fill="#ffcab3ff" x="240" y="448.56406460551017"/><rect width="40" height="50" transform="matrix(1,-0.5773502691896257,0,1,0,219.3931022920578)" stroke-linejoin="bevel" stroke-width="2" stroke="#000000ff" fill="#fcbd01ff" x="360" y="448.56406460551017"/><rect width="40" height="50" transform="matrix(1,0.5773502691896257,0,1,0,-242.4871130596428)" stroke-linejoin="bevel" stroke-width="2" stroke="#000000ff" fill="#ff5263ff" x="400" y="448.56406460551017"/><rect width="40" height="50" transform="matrix(1,-0.5773502691896257,0,1,0,265.5811238272278)" stroke-linejoin="bevel" stroke-width="2" stroke="#000000ff" fill="#ff5263ff" x="440" y="448.56406460551017"/><rect width="40" height="50" transform="matrix(1,-0.5773502691896257,0,1,0,311.7691453623979)" stroke-linejoin="bevel" stroke-width="2" stroke="#000000ff" fill="#ffcab3ff" x="520" y="448.56406460551017"/><rect width="40" height="50" transform="matrix(1,0.5773502691896257,0,1,0,-381.05117766515303)" stroke-linejoin="bevel" stroke-width="2" stroke="#000000ff" fill="#14aaf5ff" x="640" y="448.56406460551017"/><rect width="40" height="50" transform="matrix(1,-0.5773502691896257,0,1,0,404.145188432738)" stroke-linejoin="bevel" stroke-width="2" stroke="#000000ff" fill="#796effff" x="680" y="448.56406460551017"/><rect width="40" height="50" transform="matrix(1,0.5773502691896257,0,1,0,-427.23919920032307)" stroke-linejoin="bevel" stroke-width="2" stroke="#000000ff" fill="#ffcab3ff" x="720" y="448.56406460551017"/><rect width="40" height="50" transform="matrix(1,0.5773502691896257,0,1,0,-473.4272207354931)" stroke-linejoin="bevel" stroke-width="2" stroke="#000000ff" fill="#f0f2f3ff" x="800" y="448.56406460551017"/><rect width="40" height="50" transform="matrix(1,-0.5773502691896257,0,1,0,496.5212315030781)" stroke-linejoin="bevel" stroke-width="2" stroke="#000000ff" fill="#ff5263ff" x="840" y="448.56406460551017"/><rect width="40" height="50" transform="matrix(1,0.5773502691896257,0,1,0,-519.6152422706632)" stroke-linejoin="bevel" stroke-width="2" stroke="#000000ff" fill="#14aaf5ff" x="880" y="448.56406460551017"/></svg>