<?xml version="1.0" standalone="no"?>
<!DOCTYPE svg PUBLIC "-//W3C//DTD SVG 20010904//EN"
 "http://www.w3.org/TR/2001/REC-SVG-20010904/DTD/svg10.dtd">
<svg version="1.0" xmlns="http://www.w3.org/2000/svg"
 width="512.000000pt" height="512.000000pt" viewBox="0 0 512.000000 512.000000"
 preserveAspectRatio="xMidYMid meet">

<g transform="translate(0.000000,512.000000) scale(0.100000,-0.100000)"
fill="#000000" stroke="none">
<path d="M1838 3804 c-2 -2 -38 -4 -80 -6 -60 -2 -74 -6 -70 -17 3 -8 1 -12
-5 -8 -6 4 -17 -1 -24 -10 -12 -15 -12 -16 1 -8 8 6 22 10 30 10 8 0 20 4 27
8 16 10 27 -11 14 -27 -8 -9 -7 -13 4 -13 8 0 12 4 9 8 -2 4 1 11 7 15 8 4 9
3 5 -4 -4 -7 -2 -12 3 -12 6 0 11 6 11 13 0 8 4 7 10 -3 5 -8 10 -19 10 -25 0
-5 -5 -3 -10 5 -5 8 -10 10 -10 4 0 -6 -26 -10 -62 -11 -35 0 -380 -4 -768 -7
-775 -8 -736 -4 -784 -69 -21 -28 -21 -29 -24 -1065 -3 -1168 -8 -1091 72
-1137 l41 -23 1305 -6 c718 -3 1320 -7 1338 -8 17 -1 32 -6 32 -11 0 -4 4 -5
10 -2 5 3 10 1 10 -5 0 -12 -32 -10 -41 3 -3 5 -9 1 -12 -8 -4 -9 -3 -13 3
-10 6 4 8 -6 6 -24 -2 -17 1 -28 6 -25 5 3 8 11 7 17 -4 32 1 40 16 27 8 -7
15 -9 15 -5 0 4 7 2 16 -6 13 -10 17 -10 24 0 5 9 10 10 14 2 4 -6 1 -11 -6
-11 -10 0 -9 -3 2 -11 12 -9 11 -10 -5 -4 -33 11 -37 11 -42 -5 -3 -10 -2 -11
4 -3 6 8 14 9 23 3 24 -15 247 -13 253 3 4 10 6 10 6 0 1 -9 23 -13 76 -13 69
0 75 2 75 21 0 12 5 19 13 17 6 -3 12 -11 12 -18 0 -7 7 -14 16 -15 21 -4 18
31 -6 53 -10 9 -15 11 -11 5 5 -9 2 -11 -8 -7 -30 12 -16 24 24 21 22 -2 40 1
40 6 0 6 2 8 5 5 3 -3 1 -17 -5 -32 -6 -18 -6 -25 0 -21 6 3 10 13 10 21 0 8
4 13 9 9 5 -3 13 0 17 6 4 8 3 9 -4 5 -7 -4 -12 -2 -12 3 0 6 19 11 43 11 23
0 339 3 702 6 715 7 689 5 738 64 36 43 40 94 34 442 -4 167 -6 614 -7 994 l0
691 -23 33 c-48 73 53 67 -1297 74 -1326 8 -1299 7 -1319 20 -7 5 -16 5 -20 0
-9 -13 -48 -16 -56 -5 -3 6 0 8 8 5 8 -3 19 2 26 10 11 13 10 15 -7 11 -13 -2
-22 3 -25 16 -3 10 -11 19 -19 19 -10 0 -9 -3 2 -10 8 -5 10 -10 4 -10 -6 0
-17 6 -23 14 -10 12 -8 15 11 19 13 2 -75 4 -194 4 -119 0 -219 -1 -220 -3z
m369 -21 c12 -5 14 -3 8 8 -7 12 -6 12 7 1 9 -7 14 -21 11 -32 -3 -12 0 -20 6
-20 7 0 10 4 7 8 -3 5 1 9 8 9 8 0 12 -6 9 -14 -3 -7 -10 -13 -17 -13 -20 0
-57 31 -50 42 4 6 -2 8 -17 4 -13 -3 -18 -3 -10 0 11 5 11 8 0 16 -14 10 -2 7
38 -9z m-447 1 c0 -8 -19 -13 -24 -6 -3 5 1 9 9 9 8 0 15 -2 15 -3z m239 -18
c8 -10 9 -16 1 -21 -6 -4 -9 -1 -8 7 2 7 -3 12 -10 10 -8 -1 -11 2 -7 8 8 13
10 13 24 -4z m45 -15 c-2 -3 -12 3 -22 13 -16 17 -16 18 5 5 12 -7 20 -15 17
-18z m52 -10 c1 -6 0 -7 -3 -1 -2 5 -9 8 -13 5 -5 -3 -11 -1 -14 4 -4 5 2 8
11 7 9 -2 18 -8 19 -15z m-142 -9 c2 -4 -5 -9 -17 -9 -17 -2 -19 0 -7 7 18 12
18 12 24 2z m290 -372 c14 -5 26 -16 26 -25 0 -17 -16 -20 -25 -5 -9 14 -45
12 -45 -2 0 -7 18 -21 40 -30 42 -18 50 -37 24 -62 -18 -19 -65 -21 -82 -4
-16 16 -15 28 3 28 8 0 15 -5 15 -11 0 -6 10 -9 23 -7 33 5 27 31 -10 42 -43
12 -53 43 -23 68 26 21 22 21 54 8z m344 -6 c12 -8 20 -20 16 -26 -4 -6 -10
-6 -17 1 -14 14 -44 14 -52 1 -3 -5 11 -17 32 -27 40 -19 52 -45 33 -68 -17
-20 -79 -20 -87 0 -8 22 4 30 22 15 16 -13 45 -7 45 10 0 5 -16 16 -35 24 -54
23 -44 78 15 85 3 1 16 -6 28 -15z m429 -11 c18 -23 4 -37 -16 -19 -24 22 -48
20 -61 -5 -25 -46 26 -105 55 -65 12 16 35 22 35 9 0 -17 -36 -43 -60 -43 -48
0 -72 43 -57 103 12 45 74 57 104 20z m-2243 11 c19 -7 21 -55 4 -72 -7 -7
-22 -12 -34 -12 -16 0 -24 -7 -26 -22 -2 -12 -9 -23 -15 -26 -10 -3 -13 15
-13 67 l0 71 34 0 c19 0 41 -3 50 -6z m196 -44 c31 -80 33 -90 16 -90 -8 0
-18 9 -21 20 -4 13 -15 20 -30 20 -15 0 -26 -7 -30 -20 -3 -11 -11 -20 -16
-20 -13 0 -11 32 5 71 7 19 16 42 19 52 11 31 38 15 57 -33z m148 23 l20 -28
13 28 c7 15 18 27 26 27 18 0 16 -9 -6 -46 -11 -18 -21 -44 -23 -60 -4 -38
-28 -44 -28 -7 0 15 -9 43 -20 61 -34 55 -19 75 18 25z m228 -21 l22 -47 21
48 c33 71 51 63 51 -24 0 -52 -3 -70 -12 -67 -7 3 -15 20 -18 38 l-5 33 -13
-36 c-7 -21 -18 -37 -23 -37 -6 0 -19 19 -29 43 l-20 42 0 -42 c0 -44 -14 -58
-25 -24 -6 20 -5 100 2 114 10 19 30 3 49 -41z m294 39 c0 -6 -15 -11 -32 -13
-45 -4 -45 -32 0 -36 40 -4 32 -22 -9 -22 -44 0 -36 -34 9 -38 48 -5 39 -22
-12 -22 -31 0 -46 5 -50 16 -8 21 -8 109 1 117 10 11 93 8 93 -2z m157 -33
l28 -42 3 42 c2 29 8 42 18 42 11 0 14 -16 14 -70 0 -85 -12 -90 -55 -22 l-30
47 -3 -47 c-2 -34 -7 -48 -18 -48 -11 0 -14 16 -14 70 0 84 15 92 57 28z m273
32 c0 -5 -9 -10 -20 -10 -18 0 -20 -7 -20 -60 0 -47 -3 -60 -15 -60 -12 0 -15
13 -15 60 0 53 -2 60 -20 60 -11 0 -20 5 -20 10 0 6 25 10 55 10 30 0 55 -4
55 -10z m735 0 c-3 -5 -19 -10 -36 -10 -22 0 -29 -5 -29 -20 0 -16 7 -20 30
-20 17 0 30 -4 30 -10 0 -5 -13 -10 -30 -10 -23 0 -30 -4 -30 -20 0 -16 7 -20
35 -20 19 0 35 -5 35 -11 0 -6 -19 -9 -47 -7 l-48 3 -3 68 -3 67 51 0 c32 0
49 -4 45 -10z m355 -44 c0 -58 8 -71 40 -61 17 5 20 15 20 61 0 41 4 54 15 54
21 0 20 -88 -1 -118 -18 -26 -60 -29 -86 -5 -24 21 -26 123 -3 123 11 0 15
-13 15 -54z m291 33 c8 -16 8 -27 -1 -44 -9 -17 -9 -28 -1 -43 15 -27 14 -32
-4 -32 -9 0 -21 11 -27 25 -15 33 -38 32 -38 -1 0 -16 -5 -24 -12 -21 -12 4
-21 112 -11 130 2 4 22 7 43 7 30 0 42 -5 51 -21z m199 11 c0 -5 -13 -10 -30
-10 -23 0 -30 -4 -30 -20 0 -16 7 -20 30 -20 17 0 30 -4 30 -10 0 -5 -13 -10
-30 -10 -23 0 -30 -4 -30 -20 0 -16 7 -20 30 -20 17 0 30 -4 30 -10 0 -5 -20
-10 -45 -10 l-45 0 0 70 0 70 45 0 c25 0 45 -4 45 -10z m202 -7 c25 -22 24
-77 -3 -104 -14 -14 -30 -19 -57 -17 l-37 3 -2 55 c-1 30 0 61 2 68 6 18 75
15 97 -5z m345 5 c12 -19 12 -101 1 -115 -6 -7 -28 -13 -49 -13 l-39 0 0 70 0
70 39 0 c22 0 43 -6 48 -12z m152 -15 l12 -27 24 30 c30 37 42 26 18 -18 -10
-18 -20 -46 -23 -62 -7 -41 -30 -46 -30 -7 0 17 -9 45 -20 63 -23 39 -25 48
-7 48 8 0 19 -12 26 -27z m-885 -456 c11 -8 17 -23 14 -38 -3 -20 -9 -24 -45
-27 -31 -2 -46 -9 -54 -23 -13 -26 -7 -33 33 -33 28 -1 33 -5 39 -33 8 -40 5
-43 -43 -43 l-38 0 0 -130 0 -130 -45 0 -45 0 0 130 0 130 -26 0 c-23 0 -25 3
-22 38 2 29 8 38 24 40 15 2 25 15 32 41 7 21 20 45 31 55 36 33 114 45 145
23z m-504 -59 l0 -63 69 0 c116 0 141 -40 141 -227 l0 -108 -45 0 -45 0 0 109
c0 119 -11 147 -60 156 -56 11 -59 5 -62 -133 l-3 -127 -42 -3 -43 -3 0 193
c0 106 -3 210 -6 231 l-7 37 52 0 51 0 0 -62z m-1780 37 c7 -5 11 -4 7 1 -6
11 124 11 141 0 6 -4 21 -2 32 4 16 9 22 8 26 -5 3 -8 11 -12 18 -8 20 13 46
13 46 0 0 -8 3 -8 9 2 12 19 138 22 146 4 7 -19 -16 -63 -32 -63 -7 0 -13 -7
-13 -15 0 -17 -43 -38 -48 -24 -2 5 -8 9 -14 9 -6 0 -8 -7 -4 -15 5 -13 -24
-15 -224 -15 l-229 0 -7 -36 c-4 -20 -4 -78 -2 -128 8 -126 -5 -329 -20 -334
-7 -2 -12 -13 -12 -24 0 -14 -5 -18 -15 -15 -8 4 -17 1 -21 -5 -4 -7 -3 -8 4
-4 7 4 12 4 12 1 0 -5 -62 -35 -72 -35 -5 0 0 573 5 605 3 17 6 36 6 43 1 6 6
12 12 12 7 0 17 7 24 16 6 10 27 22 46 28 38 13 158 14 179 1z m886 -2 c9 -3
14 -20 14 -43 l0 -37 -72 4 c-65 4 -77 2 -108 -19 -43 -29 -64 -85 -55 -145
13 -86 88 -134 177 -113 60 13 58 14 58 -29 0 -47 -8 -51 -103 -51 -127 1
-196 52 -219 164 -22 103 19 213 93 252 59 30 161 38 215 17z m310 -108 c51
-21 64 -61 64 -194 0 -77 -4 -112 -12 -118 -7 -4 -54 -9 -104 -11 -130 -6
-174 20 -174 103 0 53 41 90 107 100 29 4 61 4 72 0 17 -5 21 -2 21 14 0 41
-28 54 -102 48 l-68 -6 0 34 c0 24 5 35 18 38 40 11 145 6 178 -8z m372 9 c19
-6 23 -12 20 -43 -2 -26 -7 -35 -18 -32 -49 12 -107 11 -124 -2 -32 -23 -13
-43 54 -56 78 -16 110 -44 110 -99 0 -29 -7 -45 -30 -67 -26 -25 -38 -29 -107
-33 -105 -5 -133 6 -133 54 0 33 2 36 23 30 41 -13 106 -19 132 -12 20 5 26
12 23 28 -2 18 -16 25 -72 39 -98 23 -126 64 -94 135 23 49 135 79 216 58z
m947 -34 c0 -31 -3 -35 -25 -32 -14 1 -35 0 -47 -3 -22 -5 -23 -9 -23 -135 l0
-130 -45 0 -45 0 0 160 0 160 28 6 c15 3 32 7 37 9 6 2 35 3 65 2 l55 -2 0
-35z m293 20 c39 -24 75 -96 70 -143 l-3 -32 -113 -3 -112 -3 15 -29 c18 -34
61 -46 136 -36 l49 7 0 -34 c0 -41 -13 -47 -104 -47 -83 0 -142 30 -167 84
-39 87 -11 199 61 237 47 26 125 25 168 -1z m379 0 c41 -25 63 -68 66 -128 l2
-47 -107 -3 c-118 -3 -132 -12 -82 -51 29 -23 110 -29 145 -11 17 10 19 7 19
-29 0 -47 -8 -51 -99 -51 -126 0 -191 58 -191 170 0 68 30 125 80 151 47 25
125 25 167 -1z m-3537 -390 l0 -319 -32 -37 c-30 -33 -81 -64 -108 -64 -7 0
-10 104 -10 310 0 332 1 340 52 387 23 22 62 41 86 42 9 1 12 -69 12 -319z
m600 294 c0 -41 -37 -91 -84 -114 -38 -18 -59 -20 -147 -18 l-104 3 -3 64 c-2
35 -1 70 2 77 4 11 41 14 171 14 l165 0 0 -26z m246 -303 c54 -25 79 -75 70
-145 -10 -91 -62 -136 -163 -145 l-68 -6 -3 -63 -3 -63 -42 3 -42 3 -3 205
c-1 112 0 210 2 217 9 22 201 17 252 -6z m2332 -43 c3 -36 5 -37 45 -40 41 -3
42 -4 42 -38 0 -34 -1 -35 -42 -38 l-43 -3 0 -84 c0 -75 2 -86 21 -95 11 -6
34 -8 50 -5 30 7 30 6 27 -32 -3 -38 -3 -38 -50 -41 -58 -4 -111 19 -127 54
-6 14 -11 65 -11 114 0 89 0 90 -25 90 -22 0 -25 4 -25 40 0 36 3 40 25 40 23
0 25 4 25 41 l0 40 43 -3 c41 -3 42 -4 45 -40z m-1962 -69 c33 -31 44 -78 44
-190 l0 -96 -39 -11 c-21 -7 -69 -12 -107 -12 -115 0 -169 50 -144 133 9 31
20 42 53 58 24 10 65 19 95 19 57 0 63 9 31 41 -19 19 -29 21 -90 15 l-69 -6
0 34 c0 37 -2 36 90 50 37 5 115 -15 136 -35z m1709 7 c44 -29 56 -73 53 -199
l-3 -112 -42 -3 -43 -3 0 114 c0 135 -7 150 -71 151 l-44 1 -5 -130 -5 -130
-40 0 -40 0 -5 150 c-3 83 -2 154 2 159 12 15 130 32 175 26 23 -4 53 -14 68
-24z m-1528 13 c5 -5 23 -53 39 -104 16 -52 31 -95 34 -95 3 0 21 42 39 93 19
50 38 98 44 105 11 14 73 16 82 3 3 -5 1 -20 -5 -33 -5 -13 -44 -113 -86 -223
-42 -110 -81 -203 -88 -207 -15 -10 -74 -10 -80 0 -2 4 6 32 20 62 13 30 23
62 23 70 0 8 -26 85 -58 170 -33 85 -57 158 -55 162 8 12 78 10 91 -3z m553 3
c14 1 60 2 102 2 68 1 79 -2 102 -23 38 -35 48 -82 44 -201 l-3 -105 -42 -3
-43 -3 -1 98 c-2 132 -7 154 -42 166 -15 5 -38 6 -50 3 -21 -5 -22 -9 -22
-133 l0 -128 -40 0 -40 0 -5 111 c-6 124 -19 154 -69 154 -47 0 -50 -8 -53
-140 -3 -136 -6 -140 -64 -126 l-24 6 0 154 0 154 38 10 c20 6 71 9 112 7 41
-3 86 -4 100 -3z m570 -5 c43 -22 70 -74 70 -133 l0 -54 -110 0 c-60 0 -110
-2 -110 -4 0 -51 102 -84 174 -56 25 9 26 8 26 -29 0 -45 -11 -51 -105 -51
-120 0 -185 60 -185 170 0 106 60 170 159 170 31 0 67 -6 81 -13z m1038 7 c17
-5 22 -14 22 -41 l0 -34 -59 7 c-62 7 -101 -5 -101 -31 0 -13 19 -20 103 -39
43 -10 77 -49 77 -88 0 -70 -58 -109 -157 -107 -93 2 -107 9 -111 53 -3 36 -2
38 20 32 46 -13 107 -18 133 -12 20 5 26 12 23 28 -2 18 -16 25 -73 39 -78 20
-105 44 -105 93 0 40 24 74 64 92 32 14 124 18 164 8z m-1316 -875 c5 -3 3 -9
-4 -11 -9 -4 -14 3 -15 21 -1 14 1 19 4 11 3 -8 10 -18 15 -21z m54 19 c4 -7
3 -8 -4 -4 -8 5 -12 0 -12 -13 0 -12 5 -21 11 -21 5 0 7 5 3 12 -4 7 -3 8 5 4
9 -6 9 -11 1 -21 -8 -9 -8 -15 0 -18 6 -3 5 -4 -2 -3 -7 1 -17 16 -23 32 -5
16 -14 32 -20 36 -5 4 0 8 12 8 12 0 25 -5 29 -12z m104 -3 c0 -2 -6 -8 -13
-14 -10 -8 -14 -7 -14 2 0 8 6 14 14 14 7 0 13 -1 13 -2z m195 -35 c3 -5 1
-10 -4 -10 -6 0 -11 5 -11 10 0 6 2 10 4 10 3 0 8 -4 11 -10z"/>
<path d="M720 3315 c0 -22 4 -26 23 -23 14 2 22 10 22 23 0 13 -8 21 -22 23
-19 3 -23 -1 -23 -23z"/>
<path d="M926 3305 c-9 -23 -8 -25 9 -25 17 0 19 9 6 28 -7 11 -10 10 -15 -3z"/>
<path d="M3380 3321 c0 -16 6 -21 26 -21 33 0 30 33 -4 38 -17 3 -22 -2 -22
-17z"/>
<path d="M3780 3290 c0 -43 3 -50 20 -50 25 0 53 41 43 66 -8 23 -22 34 -45
34 -15 0 -18 -9 -18 -50z"/>
<path d="M4135 3330 c-4 -7 -3 -16 3 -22 14 -14 45 -2 40 15 -6 16 -34 21 -43
7z"/>
<path d="M4132 3263 c2 -10 12 -18 23 -18 11 0 21 8 23 18 3 13 -3 17 -23 17
-20 0 -26 -4 -23 -17z"/>
<path d="M2263 2560 c-25 -10 -31 -48 -11 -68 7 -7 31 -12 55 -12 l43 0 0 39
c0 50 -30 64 -87 41z"/>
<path d="M3864 2682 c-11 -7 -34 -45 -34 -56 0 -3 32 -6 70 -6 75 0 83 7 54
48 -15 22 -66 30 -90 14z"/>
<path d="M4243 2682 c-6 -4 -16 -20 -22 -35 l-11 -27 70 0 c75 0 83 7 54 48
-15 22 -66 30 -91 14z"/>
<path d="M1520 2278 c-4 -24 -2 -150 3 -154 3 -4 27 -3 52 0 53 8 76 36 78 92
1 47 -22 64 -85 64 -26 0 -48 -1 -48 -2z"/>
<path d="M1903 2060 c-30 -12 -31 -55 -3 -70 12 -6 38 -10 58 -8 34 3 37 6 40
37 2 20 -2 37 -10 42 -17 11 -57 10 -85 -1z"/>
<path d="M3216 2168 c-29 -41 -21 -48 49 -48 61 0 65 1 65 23 0 33 -18 47 -61
47 -28 0 -42 -6 -53 -22z"/>
<path d="M1645 3790 c-4 -6 -10 -8 -14 -6 -4 3 -8 -1 -8 -9 0 -13 4 -12 19 2
18 16 22 23 14 23 -3 0 -8 -5 -11 -10z"/>
<path d="M2313 3786 c0 -8 5 -14 11 -13 6 1 10 -4 8 -11 -1 -8 2 -11 8 -7 8 5
6 13 -6 26 -21 23 -21 23 -21 5z"/>
<path d="M2804 1389 c-3 -6 2 -18 12 -27 17 -16 17 -16 5 0 -7 9 -10 22 -6 28
3 5 4 10 1 10 -3 0 -8 -5 -12 -11z"/>
<path d="M3435 1380 c3 -5 8 -10 11 -10 2 0 4 5 4 10 0 6 -5 10 -11 10 -5 0
-7 -4 -4 -10z"/>
<path d="M3505 1380 c-4 -6 -8 -22 -11 -35 -4 -25 -4 -25 14 -8 10 10 14 21 9
24 -5 4 -6 12 -3 18 4 6 5 11 2 11 -3 0 -8 -5 -11 -10z"/>
<path d="M2857 1341 c-4 -17 -3 -21 5 -13 5 5 8 16 6 23 -3 8 -7 3 -11 -10z"/>
</g>
</svg>
