<svg xmlns="http://www.w3.org/2000/svg" viewBox="0 0 1600 1000" width="1600" height="1000"><path fill="#FFF" d="M0 0h1600v1000H0z"/><g transform="translate(1319.0 235.0) rotate(0.0 136.0 132.5) scale(0.2714397483593862 0.2713506915858758)"><svg width="1002.064" height="976.596" viewBox="0 0 1002.064 976.596"><linearGradient id="a" gradientTransform="matrix(.76255543 .64692288 .64716244 -.7623522 -2687.225 546.663)" gradientUnits="userSpaceOnUse" x1="1997.181" x2="3948.791" y1="2105.781" y2="2105.781"><stop offset="0" stop-color="#F8C46B"/><stop offset=".951" stop-color="#f6d9fb" stop-opacity=".042"/></linearGradient><path d="m394.095 18.846 586.144 497.266c10.048 8.525 11.279 23.58 2.749 33.628L639.404 954.471c-8.53 10.048-23.59 11.283-33.638 2.758L19.621 459.964c-10.048-8.524-11.279-23.58-2.749-33.628L360.457 21.605c8.53-10.048 23.59-11.283 33.638-2.758z" fill="url(#a)"/><g fill="#fff"><path d="M987.841 540.696c-.229 0-.46-.008-.692-.024l-473.088-32.354c-14.87-1.017-27.243-11.427-30.787-25.904L369.069 16.108c-1.313-5.364 1.97-10.778 7.334-12.092 5.362-1.316 10.777 1.97 12.092 7.334l114.204 466.306a14.044 14.044 0 0 0 12.727 10.708l473.088 32.354c5.51.376 9.671 5.149 9.294 10.659-.36 5.278-4.755 9.318-9.967 9.318z"/><path d="M490.524 479.948c-.173 0-.346-.004-.52-.013L12.482 455.498c-5.516-.282-9.759-4.982-9.477-10.498.283-5.516 5.021-9.744 10.498-9.476l477.522 24.437c5.516.282 9.759 4.982 9.477 10.498-.273 5.341-4.69 9.489-9.979 9.489zm131.507 492.53c-4.627 0-8.781-3.23-9.775-7.938l-97.777-463.485c-1.141-5.404 2.316-10.708 7.72-11.849 5.408-1.143 10.709 2.317 11.849 7.72l97.778 463.485c1.141 5.404-2.316 10.708-7.72 11.849-.696.147-1.391.217-2.074.217z"/></g></svg></g><g transform="translate(59.0 571.0) rotate(0.0 143.0 149.5) scale(0.33521609131005026 0.3331056925423317)"><svg width="853.181" height="897.613" viewBox="0 0 853.181 897.613"><linearGradient id="b" gradientTransform="matrix(.99635126 -.08534736 .08534736 .99635126 23.637 785.512)" gradientUnits="userSpaceOnUse" x1="3.528" x2="903.316" y1="-299.975" y2="-299.975"><stop offset=".519" stop-color="#6762FF"/><stop offset=".998" stop-color="#66b4c8"/></linearGradient><path d="M759.234 508.937a337.135 337.135 0 0 0 4.409-35.426l.855-12.029a65.996 65.996 0 0 1 20.555-43.34l42.959-40.506c20.23-19.075 25.719-49.083 13.55-74.084l-43.298-88.954c-12.193-25.05-39.274-39.244-66.812-35.018l-59.27 9.097c-16.545 2.539-33.405-1.574-46.962-11.391a332.63 332.63 0 0 0-17.675-11.955 63.535 63.535 0 0 1-27.951-39.106l-13.873-58.597c-6.405-27.053-29.643-46.807-57.375-48.773l-98.704-6.995c-27.796-1.97-53.636 14.39-63.744 40.359l-21.739 55.852a63.558 63.558 0 0 1-33.235 34.931 334.797 334.797 0 0 0-19.196 9.358c-14.751 7.78-31.955 9.482-47.93 4.694l-57.688-17.292c-26.635-7.984-55.367 2.266-70.935 25.305l-55.407 81.995c-15.6 23.086-14.351 53.64 3.081 75.376l36.909 46.021a65.466 65.466 0 0 1 14.226 45.653l-.859 11.937-.853 11.998a66.015 66.015 0 0 1-20.561 43.35l-42.952 40.499c-20.23 19.075-25.719 49.084-13.55 74.085l43.315 88.987c12.193 25.05 39.274 39.244 66.812 35.017l59.296-9.101c16.537-2.538 33.389 1.569 46.943 11.377a335.669 335.669 0 0 0 17.648 11.935 63.54 63.54 0 0 1 27.943 39.104l13.875 58.621c6.404 27.057 29.647 46.814 57.383 48.777l98.701 6.983c27.794 1.966 53.63-14.393 63.737-40.359l21.741-55.858a63.56 63.56 0 0 1 33.231-34.929 332.513 332.513 0 0 0 19.147-9.339c14.761-7.793 31.981-9.502 47.97-4.706l57.69 17.304c26.637 7.99 55.375-2.259 70.946-25.301l55.402-81.988c15.6-23.086 14.351-53.64-3.081-75.376l-54.684-68.185.009-.006h.002zm-342.081 99.838c-87.823-6.196-153.995-82.425-147.778-170.245 6.215-87.82 82.442-153.963 170.267-147.775 87.82 6.218 153.963 82.442 147.745 170.262-6.215 87.82-82.442 153.963-170.24 147.748l.006.009z" fill="url(#b)"/></svg></g><g transform="translate(1143.0 377.0) rotate(0.0 226.0 186.5) scale(0.26872083531752755 0.26864953551719717)"><svg width="1682.043" height="1388.426" viewBox="0 0 1682.043 1388.426"><linearGradient id="c" gradientTransform="matrix(.96285215 .27002913 .27033161 -.96276732 -2138.821 5561.595)" gradientUnits="userSpaceOnUse" x1="845.654" x2="2656.491" y1="5490.667" y2="5490.667"><stop offset="0" stop-color="#6762FF"/><stop offset="1" stop-color="#68c7f1"/></linearGradient><path d="M317.122 9.762 1637.32 380.01c22.632 6.347 35.826 29.842 29.47 52.477l-256.018 911.76c-6.356 22.635-29.855 35.84-52.487 29.492L38.088 1003.492c-22.632-6.347-35.826-29.842-29.47-52.477L264.635 39.254c6.356-22.635 29.855-35.839 52.487-29.492z" fill="url(#c)"/><g fill="#fff"><path d="M854.086 710.251c-15.818 0-31.138-7.116-41.429-20.098L280.653 19.067c-3.432-4.328-2.704-10.618 1.624-14.049 4.326-3.431 10.618-2.703 14.048 1.624l532.004 671.086c8.957 11.297 24.033 15.458 37.515 10.355l791.093-299.431c5.166-1.955 10.938.648 12.893 5.812 1.955 5.166-.647 10.938-5.812 12.893L872.925 706.788a53.185 53.185 0 0 1-18.838 3.462z"/><path d="M16.594 994.992a10.001 10.001 0 0 1-9.287-6.288c-2.052-5.128.441-10.948 5.569-12.999l791.505-316.686c5.126-2.05 10.946.442 12.999 5.57 2.052 5.128-.441 10.948-5.569 12.999L20.306 994.274a9.983 9.983 0 0 1-3.712.718zm1371.992 385.149a9.988 9.988 0 0 1-8.016-4.01L874.001 698.962c-3.308-4.422-2.404-10.689 2.018-13.998s10.688-2.405 13.998 2.017l506.569 677.169c3.308 4.422 2.404 10.689-2.018 13.998a9.956 9.956 0 0 1-5.982 1.993z"/></g></svg></g><g transform="translate(177.0 77.0) rotate(0.0 638.0 432.0) scale(0.39009226782707906 0.3902195798093886)"><svg width="3271.021" height="2214.138" viewBox="0 0 3271.021 2214.138"><rect fill="#fff" height="1887.783" rx="51.841" transform="matrix(.99535596 -.09626269 .09626269 .99535596 -99.15 162.893)" width="3054.822" x="111.26" y="165.159"/><path d="M255.707 2203.337c-14.87 0-29.154-5.104-40.781-14.681-13.264-10.924-21.479-26.36-23.134-43.465L20.05 369.378c-3.415-35.308 22.532-66.811 57.84-70.226L3015.325 15.068c17.099-1.656 33.827 3.451 47.092 14.376 13.264 10.924 21.479 26.36 23.133 43.464l171.741 1775.814c1.655 17.104-3.45 33.827-14.375 47.091-10.924 13.265-26.36 21.48-43.464 23.134L262.018 2203.031a65.612 65.612 0 0 1-6.311.306zM80.295 324.017c-21.598 2.089-37.47 21.359-35.381 42.957l171.742 1775.813c1.012 10.463 6.038 19.905 14.151 26.587s18.341 9.803 28.806 8.794l2937.435-284.085c10.462-1.012 19.904-6.037 26.586-14.15 6.683-8.113 9.806-18.344 8.794-28.805L3060.686 75.313c-1.012-10.462-6.037-19.904-14.15-26.586-8.113-6.684-18.34-9.802-28.806-8.795z" fill="#6762FF"/><path d="M79.093 311.584 3018.624 27.298c28.478-2.754 53.837 18.132 56.591 46.61l22.653 234.233L55.135 602.409 32.482 368.176c-2.754-28.478 18.132-53.837 46.61-56.591z" fill="#6762FF"/><g fill="#fff"><circle cx="181.518" cy="445.934" r="66.181"/><circle cx="362.12" cy="428.467" r="66.181"/><circle cx="542.722" cy="411.001" r="66.181"/></g></svg></g><g transform="translate(9.0 372.0) rotate(-9.937506660989422 92.5 96.5) scale(0.21683558353971782 0.21501471123969906)"><svg width="853.181" height="897.613" viewBox="0 0 853.181 897.613"><linearGradient id="d" gradientTransform="matrix(.99635126 -.08534736 .08534736 .99635126 23.637 785.512)" gradientUnits="userSpaceOnUse" x1="3.528" x2="903.316" y1="-299.975" y2="-299.975"><stop offset=".519" stop-color="#6762FF"/><stop offset=".998" stop-color="#66b4c8"/></linearGradient><path d="M759.234 508.937a337.135 337.135 0 0 0 4.409-35.426l.855-12.029a65.996 65.996 0 0 1 20.555-43.34l42.959-40.506c20.23-19.075 25.719-49.083 13.55-74.084l-43.298-88.954c-12.193-25.05-39.274-39.244-66.812-35.018l-59.27 9.097c-16.545 2.539-33.405-1.574-46.962-11.391a332.63 332.63 0 0 0-17.675-11.955 63.535 63.535 0 0 1-27.951-39.106l-13.873-58.597c-6.405-27.053-29.643-46.807-57.375-48.773l-98.704-6.995c-27.796-1.97-53.636 14.39-63.744 40.359l-21.739 55.852a63.558 63.558 0 0 1-33.235 34.931 334.797 334.797 0 0 0-19.196 9.358c-14.751 7.78-31.955 9.482-47.93 4.694l-57.688-17.292c-26.635-7.984-55.367 2.266-70.935 25.305l-55.407 81.995c-15.6 23.086-14.351 53.64 3.081 75.376l36.909 46.021a65.466 65.466 0 0 1 14.226 45.653l-.859 11.937-.853 11.998a66.015 66.015 0 0 1-20.561 43.35l-42.952 40.499c-20.23 19.075-25.719 49.084-13.55 74.085l43.315 88.987c12.193 25.05 39.274 39.244 66.812 35.017l59.296-9.101c16.537-2.538 33.389 1.569 46.943 11.377a335.669 335.669 0 0 0 17.648 11.935 63.54 63.54 0 0 1 27.943 39.104l13.875 58.621c6.404 27.057 29.647 46.814 57.383 48.777l98.701 6.983c27.794 1.966 53.63-14.393 63.737-40.359l21.741-55.858a63.56 63.56 0 0 1 33.231-34.929 332.513 332.513 0 0 0 19.147-9.339c14.761-7.793 31.981-9.502 47.97-4.706l57.69 17.304c26.637 7.99 55.375-2.259 70.946-25.301l55.402-81.988c15.6-23.086 14.351-53.64-3.081-75.376l-54.684-68.185.009-.006h.002zm-342.081 99.838c-87.823-6.196-153.995-82.425-147.778-170.245 6.215-87.82 82.442-153.963 170.267-147.775 87.82 6.218 153.963 82.442 147.745 170.262-6.215 87.82-82.442 153.963-170.24 147.748l.006.009z" fill="url(#d)"/></svg></g><g transform="translate(1146.0 682.0) rotate(0.0 115.5 115.5) scale(0.33840352642843646 0.3382489248516317)"><svg width="682.617" height="682.929" viewBox="0 0 682.617 682.929"><linearGradient id="e" gradientTransform="matrix(.98943489 .14497791 -.14497791 .98943489 53.108 -45.873)" gradientUnits="userSpaceOnUse" x1="0" x2="682.617" y1="341.465" y2="341.465"><stop offset="0" stop-color="#6762FF"/><stop offset=".796" stop-color="#baddf0"/><stop offset="1" stop-color="#aed7ed"/></linearGradient><ellipse cx="341.309" cy="341.465" fill="url(#e)" rx="341.26" ry="341.423" transform="matrix(.98943489 -.14497791 .14497791 .98943489 -45.897 53.087)"/><path d="M551.058 211.481c-26.853-61.148-40.338-71.189-44.766-74.483l-17.803-13.262c-23.75-17.691-57.458-12.755-75.138 11.003l-41.866 56.263c-16.415 22.057-11.829 53.367 10.221 69.79l54.856 40.863c-5.953 16.735-19.687 50.949-41.308 80.001-21.622 29.055-50.448 52.032-64.76 62.534l-54.858-40.863c-22.048-16.425-53.341-11.842-69.758 10.216l-41.866 56.26c-8.568 11.509-12.137 25.667-10.058 39.867 2.079 14.199 9.563 26.738 21.066 35.308l17.805 13.262c4.428 3.298 17.903 13.34 84.162 21.542 5.624.695 11.282.62 16.824-.191l-.006.004a62.776 62.776 0 0 0 24.519-9.08c26.563-16.854 94.143-63.845 147.858-136.025 53.716-72.184 79.331-150.433 87.852-180.725a62.986 62.986 0 0 0-2.976-42.283z" fill="#fff"/></svg></g><g transform="translate(901.0 831.0) rotate(-50.63700360067201 79.5 48.5) scale(2.4517740667067587 2.4314433248107488)"><svg width="64.851" height="39.894" viewBox="0 0 64.851 39.894"><linearGradient id="f" gradientTransform="matrix(.00297446 1.05199579 1.05299408 -.00358319 -7203.502 -1847.106)" gradientUnits="userSpaceOnUse" x1="1799.307" x2="1797.81" y1="6894.304" y2="6823.396"><stop offset=".316" stop-color="#6762FF"/><stop offset=".764" stop-color="#baddf0"/><stop offset=".879" stop-color="#EAD3F8"/></linearGradient><path d="M32.513 38.828c7.039-10.516 18.074-16.237 31.455-19.143C50.571 16.87 39.504 11.224 32.405.757l-.033.042-.034-.042C25.299 11.273 14.264 16.994.883 19.9c13.397 2.815 24.464 8.461 31.563 18.928l.033-.042.034.042z" fill="url(#f)"/></svg></g><g transform="translate(517.0 97.0) rotate(39.828187450327476 79.5 48.5) scale(2.4517740667067587 2.4314433248107488)"><svg width="64.851" height="39.894" viewBox="0 0 64.851 39.894"><linearGradient id="g" gradientTransform="matrix(.00297446 1.05199579 1.05299408 -.00358319 -7203.502 -1847.106)" gradientUnits="userSpaceOnUse" x1="1799.307" x2="1797.81" y1="6894.304" y2="6823.396"><stop offset=".316" stop-color="#FFD485"/><stop offset=".764" stop-color="#FFD485"/><stop offset=".879" stop-color="#F3CE82"/></linearGradient><path d="M32.513 38.828c7.039-10.516 18.074-16.237 31.455-19.143C50.571 16.87 39.504 11.224 32.405.757l-.033.042-.034-.042C25.299 11.273 14.264 16.994.883 19.9c13.397 2.815 24.464 8.461 31.563 18.928l.033-.042.034.042z" fill="url(#g)"/></svg></g><g transform="translate(794.0 16.0) rotate(0.0 244.0 121.0) scale(0.6145762886896553 0.6166767747295031)"><svg width="794.043" height="392.426" viewBox="0 0 794.043 392.426"><linearGradient id="h" gradientTransform="matrix(.3834 -.7115 -.9938 -.3479 16506.5488 12262.1494)" gradientUnits="userSpaceOnUse" x1="7823.458" x2="7339.528" y1="18963.445" y2="19345.262"><stop offset=".057" stop-color="#9DEAFE" stop-opacity="0"/><stop offset=".171" stop-color="#9deafe" stop-opacity=".142"/><stop offset=".677" stop-color="#6762FF"/><stop offset=".896" stop-color="#C3C1FF"/></linearGradient><path d="M792 309.119C503.342-76.794 115.095-24.056 109.214 90.031c-2.82 54.726 75.794 12.807 75.794 12.807s-165.83 60.7-180.81 214.598c-8.122 83.442 59.861 112.269 176.636-24.365C268.479 190.522 535.538 41.348 792 309.119z" fill="url(#h)"/></svg></g><g transform="translate(333.0 759.0) rotate(-6.648143582332642 245.0 110.5) scale(0.6353808589571196 0.6334302108949996)"><svg width="771.191" height="348.894" viewBox="0 0 771.191 348.894"><linearGradient id="i" gradientTransform="matrix(.3155 .744 -1.0219 .254 18047.8438 -2860.2654)" gradientUnits="userSpaceOnUse" x1="-1730.691" x2="-1346.753" y1="16978.924" y2="16499.975"><stop offset=".355" stop-color="#6866F1"/><stop offset=".401" stop-color="#7973FF"/><stop offset=".461" stop-color="#8C85F7"/><stop offset=".53" stop-color="#6762FF" stop-opacity=".55"/><stop offset=".605" stop-color="#6762FF" stop-opacity=".43"/><stop offset=".684" stop-color="#6762FF" stop-opacity=".4"/><stop offset=".766" stop-color="#6762FF" stop-opacity=".14"/><stop offset=".835" stop-color="#f6d9fb" stop-opacity="0"/></linearGradient><path d="M768.984 188.199C547.957 302.73 341.363 150.971 234.488 69.087 115.157-22.34 18.624-7.377 4.841 54.277-23.68 175.475 199.475 215.881 199.475 215.881s-82.495-14.31-92.927 29.744c-22.117 106.064 432.928 173.6 662.436-57.426z" fill="url(#i)"/></svg></g><g transform="translate(318.0 274.0) rotate(0.0 498.5 276.0) scale(0.36510276709080114 0.365136598792271)"><svg width="2730.738" height="1511.763" viewBox="0 0 2730.738 1511.763"><path d="M2418.258 378.486c2.663 31.358 14.249 36.41 16.815 65.264 2.859 32.15-17.224 63.895-48.864 66.582-21.518 1.828-39.963-11.044-42.126-35.37-11.977-134.69 187.609-302.657 177.403-417.431-3.555-39.976-26.852-58.925-60.699-55.915-73.684 6.552-131.048 136.65-175.834 256.664-25.083 67.215-51.222 153.696-44.497 229.318 7.834 88.1 66.118 129.656 142.27 122.884 134.657-11.974 176.792-139.259 168.634-235.313-4.277-50.362-38.355-71.421-72.511-68.52-41.734 3.544-63.421 38.515-60.591 71.838zM709.495 367.092c-126.957 10.783-194.599 183.763-186.101 283.813 6.431 75.723 47.095 124.352 127.315 117.218 135.005-12.005 201.878-170.652 192.149-285.204-7.684-90.478-67.315-121.437-133.362-115.828zM655.542 663.75c-76.904 6.839-18.187-196.15 60.371-203.135 71.587-6.366 14.639 196.465-60.371 203.135zm1130.836-123.653c-6.274-73.867 95.669-148.4 89.358-222.714-2.845-33.501-22.004-54.728-54.394-51.848-91.222 8.112-142.806 215.048-135.409 298.221 5.605 63.027 46.076 105.275 112.902 99.6 102.315-8.69 149.6-98.296 196.321-267.45 23.099-83.632-90.574-13.533-90.574-13.533-42.654 111.681-65.502 174.126-97.391 176.834-11.655.99-19.743-6.523-20.812-19.109z"/><path d="M2196.009 340.685c-2.267-70.003-48.672-103.92-115.228-98.267-124.792 10.599-196.427 123.384-192.526 243.864 3.126 96.557 57.295 163.604 173.545 153.73 123.628-10.5 214.476-94.66 266.943-291.944l-52.865-64.646c-70.014 193.088-135.747 245.391-209.136 251.917-43.892 3.903-73.67-20.116-74.855-67.279-1.644-65.451 40.177-125.821 78.307-129.059 13.766-1.169 19.12 6.353 19.429 15.912.814 25.139-58.542 33.439-56.88 84.764.867 26.785 22.387 45.79 56.718 42.874 55.807-4.74 108.911-68.837 106.547-141.866zM1689.5 275.783c-134.316 11.944-195.711 190.863-186.643 292.832 6.775 76.187 50.052 117.682 125.647 110.96 118.41-10.529 187.52-202.781 179.889-288.592-8.095-91.033-56.046-120.789-118.893-115.2zm-61.577 299.227c-48.577 4.32 20.445-200.866 65.263-204.852 40.829-3.631-23.227 201.114-65.263 204.852zm-295.746-342.478c-106.742 9.496-123.235 53.875-174.831 58.465-42.039 3.74-74.771-22.046-78.198-62.406-5.174-60.925 55.07-102.237 140.478-109.835 156.284-13.903 235.533 52.228 394.854 38.055 114.815-10.214 132.798-75.607 202.834-81.835 42.169-3.75 68.491 17.091 71.753 53.789 6.256 70.384-66.497 118.869-179.522 128.923-165.577 14.729-253.691-36.158-377.367-25.156z"/><path d="M1520.51 440.147c-38.549 122.018-60.585 151.325-89.6 153.906-16.936 1.507-33.81-9.483-35.971-33.788-10.71-120.482 187.46-300.823 177.266-415.493-3.55-39.94-26.656-58.886-60.205-55.901-73.035 6.497-129.811 136.43-174.126 256.299-24.819 67.133-50.672 153.513-43.956 229.066 7.824 88.02 59.122 130.285 135.098 123.404 105.751-9.577 147.175-117.946 169.648-241.275 9.049-49.659-69.446-43.784-78.155-16.218zm773.406-273.714c-89.819 7.987-96.936 47.121-158.02 52.309-38.192 3.244-68.753-24.265-71.838-60.591-4.657-54.836 43.647-91.215 119.187-97.933 142.341-12.658 189.473 55.315 319.151 43.784 71.977-6.4 99.011-56.456 157.129-61.392 32.291-2.742 62.499 15.604 65.893 55.577 5.382 63.371-58.106 94.188-130.473 100.623-132.601 11.791-209.8-40.49-301.029-32.377zM709.495 367.092c-150.988 13.426-174.526 286.512 44.989 266.633 187.428-16.973 264.555-236.891 264.555-236.891l-73.183 5.96c-17.133 31.171-75.985 133.63-192.948 144.222-88.981 8.058-85.589-82.001-36.994-86.402"/><path d="M379.637 267.517c33.46-3.03 48.247 11.599 49.814 28.911 5.284 58.343-121.052 103.394-113.373 189.743 4.079 45.867 43.799 72.217 95.844 67.504 86.69-7.851 152.167-132.316 142.365-240.553-9.391-103.697-74.793-153.591-191.79-142.996C129.737 191.206-16.446 445.64 4.543 677.407c13.01 143.665 104.596 247.997 262.648 233.684 261.442-23.676 291.796-290.27 152.335-277.641-94.705 8.576-102.414 135.733-179.443 142.709-52.336 4.74-84.983-35.861-90.749-99.528-16.828-185.822 101.84-397.479 230.303-409.113zm1356.292 836.111c37.487-3.245 57.737-35.793 54.921-68.321-5.022-58.018-62.77-82.753-144.434-75.684-110.27 9.545-149.574 82.774-144.991 135.717 5.212 60.21 48.361 88.374 108.2 103.473 38.383 9.685 55.456 14.402 56.642 28.105 1.14 13.173-13.865 22.927-43.239 25.47-74.013 6.407-120.532-39.652-120.532-39.652l-65.836 78.562s58.007 76.674 195.344 64.785c102.811-8.9 153.282-61.67 147.256-131.279-6.355-73.418-70.499-90.468-119.966-106.174-29.1-9.239-46.006-16.81-47.385-32.735-.989-11.42 6.783-20.1 18.864-21.146 34.431-2.98 57.862 42.975 105.154 38.881zM1331.68 362.509c-62.919 173.966-87.688 241.463-122.306 244.598-11.441 1.036-19.346-6.621-20.471-19.043-3.773-41.669 67.216-124.969 61.166-191.781-4.598-50.777-34.45-75.026-82.224-70.699-62.722 5.68-93.813 53.964-93.813 53.964-2.378-26.262-21.216-43.547-51.27-40.825-63.025 5.708-88.698 82.777-123.519 181.023-17.781 50.173-28.377 101.39-24.576 143.368 4.277 47.225 34.539 80.809 80.935 76.607 34.035-3.082 59.557-27.033 56.733-58.213-1.768-19.525-9.686-22.847-11.809-46.29-5.026-55.497 53.671-181.041 95.915-184.867 10.611-.961 17.657 4.37 18.7 15.891 3.15 34.788-50.588 96.877-43.622 173.796 4.367 48.218 43.993 85.993 114.981 79.564 96.609-8.749 153.534-67.05 198.157-262.198 19.475-85.167-52.979-94.896-52.979-94.896zm581.886 823.276c-93.942 8.132-120.989 155.354-20.124 146.623 102.08-8.837 115.759-154.901 20.124-146.623zm126.854-358.257c-3.413-37.685-26.903-55.944-62.787-52.695-86.45 7.829-122.073 129.801-131.713 230.469-8.279 86.464 11.09 149.316 69.286 144.046 47.925-4.34 63.756-40.975 61.061-70.743-3.604-39.795-18.674-48.461-9.954-92.652 11.817-59.888 80.29-90.148 74.107-158.425z"/><path d="M1504.88 1059.015c-55.065 210.794-106.545 299.586-152.464 303.745-17.513 1.586-31.917-11.922-34.773-40.443-11.689-116.73 211.47-369.024 200.533-489.8-3.559-39.3-26.849-61.607-64.553-58.192-88.649 8.028-149.146 142.211-223.562 373.396-55.636 172.843-91.553 234.41-128.221 237.73-19.728 1.787-34.958-12.078-37.167-36.468-11.676-128.937 154.816-299.822 142.619-434.509-6.704-74.032-65.794-117.37-158.748-108.952-205.825 18.639-330.449 208.192-321.477 307.267 5.1 56.312 46.166 83.292 88.03 79.501 108.507-9.826 126.176-272.31 222.079-280.995 23.459-2.124 30.096 11.465 31.37 25.541 6.92 76.41-149.81 262.079-134.985 425.785 9.362 103.384 69.303 153.589 156.118 145.409 56.775-5.349 103.892-39.953 131.379-88.93 26.121 48.278 72.767 70.442 132.734 65.012 124.759-11.298 194.905-202.555 224.988-419.032 8.161-58.733-65.318-38.923-73.9-6.064z"/></svg></g></svg>