<svg enable-background="new 0 0 1229.447 741.904" height="742" viewBox="0 0 1229.447 741.904" width="1230" xmlns="http://www.w3.org/2000/svg"><path d="m1183.724 739.904h-1138.001c-24.147 0-43.723-19.576-43.723-43.723v-650.458c0-24.147 19.576-43.723 43.723-43.723h1138.001c24.148 0 43.723 19.576 43.723 43.723v650.457c0 24.148-19.575 43.724-43.723 43.724z" fill="#fff"/><path d="m1183.724 741.904h-1138.001c-25.212 0-45.723-20.511-45.723-45.723v-650.458c0-25.212 20.511-45.723 45.723-45.723h1138.001c25.212 0 45.724 20.511 45.724 45.723v650.458c0 25.212-20.512 45.723-45.724 45.723zm-1138.001-737.904c-23.006 0-41.723 18.717-41.723 41.723v650.458c0 23.006 18.717 41.723 41.723 41.723h1138.001c23.007 0 41.724-18.717 41.724-41.723v-650.458c0-23.006-18.717-41.723-41.724-41.723z" fill="#190e64"/><path d="m60.292 630.861c-.403 0-.811-.122-1.163-.375-.898-.644-1.104-1.894-.46-2.791l1.763-2.464c27.568-38.549 58.283-77.081 77.024-70.629 9.681 3.334 14.627 12.63 18.991 20.832 6.225 11.697 10.627 18.652 22.185 14.483 9.517-3.434 29.38-19.798 50.409-37.123 32.261-26.577 68.825-56.701 87.034-56.701 15.661 0 23.351 14.626 30.136 27.53 6.996 13.305 13.038 24.796 25.726 21.724 10.976-2.657 45.579-48.582 82.214-97.204 65.734-87.241 117.964-153.848 141.83-152.501 22.01 1.258 43.415 30.399 64.115 58.58 19.827 26.993 40.32 54.905 58.108 52.013 18.021-2.933 45.983-42.491 73.026-80.747 28.277-40.002 54.986-77.785 72.957-78.427 17.648-.626 33.51 7.221 48.849 14.813 14.84 7.346 28.842 14.283 43.361 13.124 10.751-.86 28.681-19.787 51.381-43.75 39.094-41.269 92.635-97.788 160.751-120.108 1.052-.344 2.18.229 2.523 1.278.344 1.05-.228 2.179-1.277 2.523-67.155 22.004-120.294 78.099-159.094 119.057-24.2 25.546-41.685 44.004-53.966 44.986-15.6 1.247-30.104-5.928-45.454-13.527-14.895-7.372-30.306-14.997-46.932-14.401-15.99.571-43.362 39.292-69.833 76.738-28.785 40.721-55.975 79.183-75.65 82.386-20.191 3.285-40.489-24.342-61.975-53.593-20.152-27.435-40.99-55.804-61.12-56.955-.187-.01-.379-.016-.57-.016-24.112 0-87.124 83.625-137.836 150.93-44.703 59.329-72.698 95.836-84.468 98.685-15.721 3.805-23.084-10.202-30.208-23.75-6.562-12.483-13.35-25.391-26.595-25.391-16.773 0-54.32 30.933-84.49 55.788-22.229 18.313-41.428 34.129-51.596 37.798-15.409 5.559-21.338-5.588-27.072-16.366-4.215-7.919-8.572-16.108-16.764-18.929-5.289-1.82-15.956.778-36.731 23.506-14.135 15.462-27.657 34.371-35.736 45.668l-1.767 2.468c-.389.548-1.003.838-1.626.838z" fill="#190e64"/><circle cx="595.866" cy="297.639" fill="#ec535b" r="43.054"/><path d="m595.867 342.693c-24.843 0-45.054-20.211-45.054-45.054s20.211-45.054 45.054-45.054 45.054 20.211 45.054 45.054-20.212 45.054-45.054 45.054zm0-86.107c-22.637 0-41.054 18.417-41.054 41.054s18.417 41.054 41.054 41.054 41.054-18.417 41.054-41.054-18.418-41.054-41.054-41.054z" fill="#ec535b"/><g fill="#190e64"><circle cx="595.866" cy="297.639" r="14.986"/><path d="m595.867 314.626c-9.366 0-16.986-7.62-16.986-16.986s7.62-16.986 16.986-16.986 16.986 7.62 16.986 16.986-7.62 16.986-16.986 16.986zm0-29.973c-7.161 0-12.986 5.826-12.986 12.986s5.825 12.986 12.986 12.986 12.986-5.826 12.986-12.986-5.825-12.986-12.986-12.986z"/><circle cx="316.075" cy="498.094" r="26.116"/><path d="m316.076 526.21c-15.503 0-28.116-12.613-28.116-28.116s12.613-28.116 28.116-28.116 28.115 12.613 28.115 28.116-12.613 28.116-28.115 28.116zm0-52.232c-13.298 0-24.116 10.818-24.116 24.116s10.818 24.116 24.116 24.116c13.297 0 24.115-10.818 24.115-24.116s-10.819-24.116-24.115-24.116z"/><circle cx="136.805" cy="556.494" r="26.116"/><path d="m136.805 584.61c-15.503 0-28.116-12.613-28.116-28.116s12.613-28.116 28.116-28.116 28.116 12.613 28.116 28.116-12.613 28.116-28.116 28.116zm0-52.232c-13.298 0-24.116 10.818-24.116 24.116s10.818 24.116 24.116 24.116 24.116-10.818 24.116-24.116-10.818-24.116-24.116-24.116z"/><circle cx="864.259" cy="249.061" r="26.116"/><path d="m864.259 277.177c-15.503 0-28.115-12.613-28.115-28.116s12.612-28.116 28.115-28.116 28.116 12.613 28.116 28.116-12.613 28.116-28.116 28.116zm0-52.232c-13.297 0-24.115 10.818-24.115 24.116s10.818 24.116 24.115 24.116c13.298 0 24.116-10.818 24.116-24.116s-10.818-24.116-24.116-24.116z"/></g></svg>