<svg id="canvas" height="auto" xmlns="http://www.w3.org/2000/svg" version="1.1" xmlns:xlink="http://www.w3.org/1999/xlink" xmlns:svgjs="http://svgjs.dev/svgjs" viewBox="0 0 900 512" width="auto" style="width: auto; height: auto;"><rect width="900" height="512" fill="#000000"/><g stroke-opacity="1" stroke="#6759ff" transform="matrix(1,0,0,1,77.52479614542032,40.27706669399421)"><path d="M97.65625,1.2483386297505703C97.43190137554167,36.460344000246955,100.92537019836561,100.08887161042121,72.45105314652517,107.52006155200374C43.976736094684725,114.95125149358627,-45.33778859746138,59.781822290699296,-73.18965231104264,45.835478279245734C-101.04151602462389,31.889134267792173,-95.21219693442643,48.771374182198386,-94.66012913496235,23.84199748328237C-94.10806133549826,-1.08737921563365,-97.95345785229773,-82.47512055520758,-69.87724551425815,-103.7407819142504C-41.80103317621857,-125.00644327329323,45.874895640898814,-121.25015742830807,73.79714489327517,-103.75197067097457C101.71939414565153,-86.25378391364107,97.88059862445833,-33.963666740745815,97.65625,1.2483386297505703C97.43190137554167,36.460344000246955,100.92537019836561,100.08887161042121,72.45105314652517,107.52006155200374" fill-opacity="0.25" fill="#6759ff"/></g><g stroke-opacity="1" stroke="#6759ff" transform="matrix(1,0,0,1,72.35564118313147,188.590758313789)"><path d="M85.62292894210404,-44.527983230467605C86.49347612685334,-15.629786997818417,62.70698910899775,46.473320081884594,37.43392827927227,65.0542034250651C12.160867449546792,83.6350867682456,-40.375030164681746,75.19559528150593,-66.01543603624884,66.95731682861545C-91.65584190781594,58.71903837572496,-119.27305878950511,43.92913746508411,-116.40850695013032,15.62453270772221C-113.54395511075552,-12.680072049639687,-73.59798368681784,-82.21039393579724,-48.82812500000004,-102.87031171555594C-24.058266313182248,-123.53022949531464,9.802136180425766,-118.05869538501142,32.210645170776445,-108.33497397083003C54.61915416112713,-98.61125255664865,84.75238175735474,-73.4261794631168,85.62292894210404,-44.527983230467605C86.49347612685334,-15.629786997818417,62.70698910899775,46.473320081884594,37.43392827927227,65.0542034250651" fill-opacity="0.25" fill="#6759ff"/></g><g stroke-opacity="1" stroke="#6759ff" transform="matrix(1,0,0,1,61.70863069566696,295.6822365884383)"><path d="M97.65548571138353,-15.88136668210037C97.6885251570835,15.836475172043045,91.90911721581863,44.7826047156333,68.22442807626584,64.23668539855365C44.53973893671305,83.690766081474,-15.51108118691371,111.32849052594035,-44.452649125933156,100.84311741542169C-73.3942170649526,90.35774430490302,-108.09918946495084,24.911831049273342,-105.42497955785083,1.3244467354416543C-102.75076965075083,-22.262937578390034,-57.31591817665257,-19.448719723943682,-28.407389683333108,-40.68118846756843C0.5011388099863616,-61.91365721119318,47.01571216961322,-130.2036693572182,68.02619140206599,-126.07036572630685C89.03667063451877,-121.9370620953955,97.62244626568356,-47.599208536243786,97.65548571138353,-15.88136668210037C97.6885251570835,15.836475172043045,91.90911721581863,44.7826047156333,68.22442807626584,64.23668539855365" fill-opacity="0.25" fill="#6759ff"/></g><g stroke-opacity="1" stroke="#6759ff" transform="matrix(1,0,0,1,47.05994595811386,448.8967919295487)"><path d="M87.67652486474421,14.079998303185498C87.40137151559598,38.54816336156039,77.82568401771738,70.27190496491572,58.64623491603105,84.57279333832406C39.46678581434472,98.8736817117324,-0.40373817613994945,113.24935906964103,-27.400169745373773,99.88532854363555C-54.396601314607594,86.52129801763007,-95.54245611301697,34.68392346725835,-103.33235449937192,4.388610182291153C-111.12225288572687,-25.90670310267605,-101.41114498188549,-70.78241663379826,-74.13956006350344,-81.88655116616766C-46.86797514512139,-92.99068569853706,33.3278075228791,-78.23062192348415,60.29715501092038,-62.236197011925285C87.26650249896166,-46.241772100366425,87.95167821389244,-10.388166755189395,87.67652486474421,14.079998303185498C87.40137151559598,38.54816336156039,77.82568401771738,70.27190496491572,58.64623491603105,84.57279333832406" fill-opacity="0.25" fill="#6759ff"/></g><g stroke-opacity="1" stroke="#6759ff" transform="matrix(1,0,0,1,151.1965041762988,50.67239894466104)"><path d="M114.86374857349682,-0.8675392024056876C112.62213235269765,32.724023770385166,77.03813508199997,88.0168318463149,49.75615615308384,103.25556921046665C22.47417722416771,118.49430657461839,-27.556636906515873,101.39368664830656,-48.82812499999997,90.56488498250481C-70.09961309348407,79.73608331670306,-74.08958042954578,63.536849967447395,-77.87277240782076,38.282759215656114C-81.65596438609575,13.028668463864829,-95.0403811839332,-38.19689822125382,-71.52727686964992,-60.95965952824292C-48.01417255536664,-83.72242083523203,32.14068257068777,-108.30916201391803,63.2058534778789,-98.29380862627849C94.27102438507002,-88.27845523863895,117.105364794296,-34.45910217519654,114.86374857349682,-0.8675392024056876C112.62213235269765,32.724023770385166,77.03813508199997,88.0168318463149,49.75615615308384,103.25556921046665" fill-opacity="0.25" fill="#6759ff"/></g><g stroke-opacity="1" stroke="#6759ff" transform="matrix(1,0,0,1,158.30698006540806,190.8835999252943)"><path d="M65.37582431039685,6.265103360481525C58.7163963216402,29.497781401546185,42.8509943619359,47.8871958549807,22.45646741289602,60.59253613456574C2.0619404638561356,73.29787641415078,-33.02167391768552,92.60259908632219,-56.991337383842456,82.49714503799177C-80.9610008499994,72.39169098966136,-122.94804872586089,23.504904672544402,-121.3615133840456,-0.04018815541671472C-119.7749780422303,-23.58528098337783,-78.1012167878643,-45.646187937040686,-47.47212533295072,-58.77341192977494C-16.84303387803713,-71.9006359225092,43.60504373821135,-89.6432846601983,62.413035345435944,-78.80353211182222C81.22102695266054,-67.96377956344614,72.03525229915351,-16.967574680583134,65.37582431039685,6.265103360481525C58.7163963216402,29.497781401546185,42.8509943619359,47.8871958549807,22.45646741289602,60.59253613456574" fill-opacity="0.25" fill="#6759ff"/></g><g stroke-opacity="1" stroke="#6759ff" transform="matrix(1,0,0,1,182.03444175997961,346.52288677680326)"><path d="M113.31354351901584,-21.78695292810737C112.5640851128603,3.0948132057341944,54.91481604001807,21.529368807580607,25.319114344862633,44.79924541707453C-4.276587350292797,68.06912202656845,-45.05787757525506,127.94474920650296,-64.26066665191674,117.83230672885617C-83.46345572857841,107.71986425120937,-90.46708020270822,10.929220123006775,-89.8976201151074,-15.875409448806238C-89.32816002750658,-42.68003902061925,-80.79615360912908,-28.226147045827133,-60.84390612631186,-42.995470702021905C-40.891658643494644,-57.764794358216676,0.7896231742412745,-108.02610434829396,29.815864781795888,-104.49135138597487C58.842106389350505,-100.95659842365578,114.06300192517138,-46.668719061948934,113.31354351901584,-21.78695292810737C112.5640851128603,3.0948132057341944,54.91481604001807,21.529368807580607,25.319114344862633,44.79924541707453" fill-opacity="0.25" fill="#6759ff"/></g><g stroke-opacity="1" stroke="#6759ff" transform="matrix(1,0,0,1,184.52457193579548,430.8464850196642)"><path d="M83.34753103253132,-1.0600904287866157C85.51607610322546,18.043876911082418,88.38185206205038,53.135667197115076,66.85719478468543,67.40781449163353C45.33253750732048,81.67996178615198,-18.382546111110326,91.63962704324953,-45.80041263165841,84.57279333832409C-73.21827915220649,77.50595963339865,-99.26772809596883,53.747066146349255,-97.65000433860308,25.0068122620809C-96.03228058123733,-3.73344162218746,-61.34339153731784,-75.83159633234249,-36.094070087463884,-87.86872996728607C-10.844748637609928,-99.90586360222966,33.93899084052145,-61.68409613733057,53.84592436052065,-47.21598954758066C73.75285788051985,-32.747882957830754,81.17898596183718,-20.16405776865565,83.34753103253132,-1.0600904287866157C85.51607610322546,18.043876911082418,88.38185206205038,53.135667197115076,66.85719478468543,67.40781449163353" fill-opacity="0.25" fill="#6759ff"/></g><g stroke-opacity="1" stroke="#6759ff" transform="matrix(1,0,0,1,290.2025695862498,58.06344411667956)"><path d="M97.65625,-20.667061657155656C97.5593082992237,11.227833671076535,48.899386973634265,91.10104778238521,24.485324473634268,108.64102361496516C0.07126197363427167,126.18099944754512,-27.029966534826126,104.25100554085424,-48.82812499999997,84.57279333832409C-70.62628346517381,64.89458113579394,-103.21399764784533,16.496557161980906,-106.30362631740881,-9.428249600215715C-109.3932549869723,-35.35305636241233,-89.260997183331,-58.75936410915359,-67.36589701738085,-70.97604723485563C-45.47079685143069,-83.19273036055768,-2.436716491271408,-91.11317928404463,25.06697467829207,-82.72834835442798C52.57066584785555,-74.34351742481132,97.7531917007763,-52.56195698538785,97.65625,-20.667061657155656C97.5593082992237,11.227833671076535,48.899386973634265,91.10104778238521,24.485324473634268,108.64102361496516" fill-opacity="0.25" fill="#6759ff"/></g><g stroke-opacity="1" stroke="#6759ff" transform="matrix(1,0,0,1,293.5577093565991,212.2006928269122)"><path d="M121.85127556953064,-24.092571545252607C119.1878905941158,-7.5081979166373465,61.034636017336055,41.5929644179013,32.84781514751089,63.63103629227315C4.660994277685727,85.669108166645,-23.89845350537585,122.13932183357116,-47.26964964942035,108.13585970097853C-70.64084579346485,94.1323975683859,-104.77070130149879,11.726051221489794,-107.37936171675611,-20.389736503282617C-109.98802213201343,-52.50552422805502,-88.9561932604236,-81.97795515163328,-62.92161214096426,-84.55886664765592C-36.88703102150491,-87.13977814367856,18.03264371491745,-45.95292132981896,48.828124999999936,-35.87520547941841C79.62360628508242,-25.79748962901786,124.51466054494549,-40.676945173867864,121.85127556953064,-24.092571545252607C119.1878905941158,-7.5081979166373465,61.034636017336055,41.5929644179013,32.84781514751089,63.63103629227315" fill-opacity="0.25" fill="#6759ff"/></g><g stroke-opacity="1" stroke="#6759ff" transform="matrix(1,0,0,1,302.7337788051675,320.20815556767235)"><path d="M97.65625,-2.1316282072803006e-14C95.27332829029967,28.219685983748736,49.417796530891366,41.16653746339907,28.519744956304052,62.52275529078783C7.621693381716735,83.87897311817659,-3.3679637302347594,138.17684866986207,-27.73205944752391,128.13730696433254C-52.096155164813055,118.09776525880301,-112.94452797137728,38.31294531721563,-117.66482934743084,2.2855050576106635C-122.3851307234844,-33.7419352019943,-82.8008851308347,-69.84719031507801,-56.05386770384523,-88.02733459329724C-29.30685027685576,-106.20747887151647,17.198922263865104,-121.46658304392092,42.817275214505976,-106.79536061170472C68.43562816514685,-92.12413817948853,100.03917170970033,-28.21968598374878,97.65625,-2.1316282072803006e-14C95.27332829029967,28.219685983748736,49.417796530891366,41.16653746339907,28.519744956304052,62.52275529078783" fill-opacity="0.25" fill="#6759ff"/></g><g stroke-opacity="1" stroke="#6759ff" transform="matrix(1,0,0,1,271.28430400953226,427.6051083327175)"><path d="M77.13475365615884,3.6704551747326803C78.11089845565127,32.44078786680892,77.3797083800314,75.13762124773426,56.385816270448736,87.88249135281094C35.39192416086607,100.62736145788763,-23.539008120911053,96.1490566834208,-48.828599001337146,80.13967580519281C-74.11818988176324,64.13029492696482,-95.36918488734713,19.26018264433547,-95.35172901210784,-8.17379391655696C-95.33427313686855,-35.60777047744939,-73.03730983083508,-71.70323174631349,-48.72386374990142,-84.46418356016176C-24.410417668967757,-97.22513537401002,29.55251123915077,-99.42861125546224,50.52894747349415,-84.73950479964651C71.50538370783752,-70.05039834383078,76.1586088566664,-25.09987751734356,77.13475365615884,3.6704551747326803C78.11089845565127,32.44078786680892,77.3797083800314,75.13762124773426,56.385816270448736,87.88249135281094" fill-opacity="0.25" fill="#6759ff"/></g><g stroke-opacity="1" stroke="#6759ff" transform="matrix(1,0,0,1,370.58605660686675,37.65524365041166)"><path d="M110.4924437300781,-24.352234087847553C110.20985818720547,5.691806811743827,87.02756046517894,80.59134551752832,62.14377416705799,96.40859323291889C37.25998786893704,112.22584094830945,-14.496886026435238,83.41150841767833,-38.810274058647614,70.55125220449585C-63.123662090859995,57.69099599131338,-89.68318977290022,45.101063544294036,-83.73655402621628,19.247055953824045C-77.78991827953234,-6.606951636645942,-27.72643315362899,-67.38900865191515,-3.1304595785439915,-84.57279333832406C21.465513996541006,-101.75657802473297,44.9021368728567,-93.89241203970883,63.839287424293715,-83.8556521646294C82.77643797573073,-73.81889228954998,110.77502927295072,-54.39627498743893,110.4924437300781,-24.352234087847553C110.20985818720547,5.691806811743827,87.02756046517894,80.59134551752832,62.14377416705799,96.40859323291889" fill-opacity="0.25" fill="#6759ff"/></g><g stroke-opacity="1" stroke="#6759ff" transform="matrix(1,0,0,1,393.5641379628613,191.6584677290961)"><path d="M75.0319296082123,18.436131637509767C75.78189935581902,42.2331906523249,73.13991703485718,70.45838748862889,48.828125000000014,77.42356062101425C24.516332965142848,84.3887337533996,-46.424760100930726,70.33057035301107,-70.83882260093073,60.22717043182196C-95.25288510093073,50.123770510632845,-101.82614511285398,39.05651593241872,-97.65625,16.803161093879552C-93.48635488714602,-5.4501937446596145,-69.48354467620015,-59.59929950578702,-45.81945192380689,-73.29295859941304C-22.155359171413615,-86.98661769303905,24.18640959235644,-80.64697517403036,44.32830651435964,-65.35879346787655C64.47020343636284,-50.07061176172275,74.28195986060557,-5.360927377305366,75.0319296082123,18.436131637509767C75.78189935581902,42.2331906523249,73.13991703485718,70.45838748862889,48.828125000000014,77.42356062101425" fill-opacity="0.25" fill="#6759ff"/></g><g stroke-opacity="1" stroke="#6759ff" transform="matrix(1,0,0,1,411.79620118533364,323.05886598617184)"><path d="M106.32900955555611,6.533890523404914C113.10251969049648,32.347570088304906,95.54753844950373,84.35593484961363,67.83943612309287,93.30203521746691C40.131333796682,102.24813558532018,-30.438013116157805,77.04222730298594,-59.919604402909044,60.210492730524585C-89.40119568966028,43.37875815806324,-104.03340725195251,12.535601250410839,-109.05011159741457,-7.688372217301158C-114.06681594287663,-27.912345685013154,-112.7279116274923,-52.15140308330874,-90.01983047568143,-61.13334807574739C-67.31174932387056,-70.11529306818603,-5.526431358422272,-72.85791527179177,27.198375313450654,-61.580042171933044C59.92318198532358,-50.30216907207433,99.55549942061575,-19.279789041495082,106.32900955555611,6.533890523404914C113.10251969049648,32.347570088304906,95.54753844950373,84.35593484961363,67.83943612309287,93.30203521746691" fill-opacity="0.25" fill="#6759ff"/></g><g stroke-opacity="1" stroke="#6759ff" transform="matrix(1,0,0,1,412.47465779645523,454.57347057343526)"><path d="M118.44822155417648,-21.29964220823656C109.48411583442662,0.018992285878074,38.548723484931806,46.534062504548864,11.16648846493062,64.17946842897564C-16.215746555070567,81.82487435340241,-28.02216173922545,99.32392759755317,-45.84518856583062,84.57279333832409C-63.66821539243578,69.82165907909501,-99.33429040911602,2.3835905659876886,-95.7716724947004,-24.327337126398817C-92.20905458028477,-51.03826481878532,-51.2566136256919,-69.12527258110939,-24.46948107933686,-75.69277281599494C2.3176514670181803,-82.2602730508805,41.13150567784429,-72.79786030367188,64.95112278342984,-63.73233853571216C88.77073988901539,-54.66681676775243,127.41232727392635,-42.618276702351196,118.44822155417648,-21.29964220823656C109.48411583442662,0.018992285878074,38.548723484931806,46.534062504548864,11.16648846493062,64.17946842897564" fill-opacity="0.25" fill="#6759ff"/></g><g stroke-opacity="1" stroke="#6759ff" transform="matrix(1,0,0,1,497.49635964240264,83.98436313129598)"><path d="M118.48561867857688,-2.1316282072803006e-14C108.1495571415496,28.19194580955259,37.21106569331832,74.42973469234032,7.413889561374511,84.57279333832406C-22.383286570569293,94.7158519843078,-42.597286859941136,79.12122378539243,-60.29743811308596,60.85835187590247C-77.99758936623078,42.59547996641251,-107.99372812008056,-3.0801840227263675,-98.78701795749444,-25.00443811861573C-89.58030779490832,-46.92869221450509,-33.093389927741384,-60.75809879937107,-5.057177137569269,-70.68717269943372C22.97903565260285,-80.61624659949636,48.83979281418058,-96.36007696889722,69.43025878353828,-84.57888151899161C90.02072475289597,-72.797686069086,128.82168021560418,-28.19194580955263,118.48561867857688,-2.1316282072803006e-14C108.1495571415496,28.19194580955259,37.21106569331832,74.42973469234032,7.413889561374511,84.57279333832406" fill-opacity="0.25" fill="#6759ff"/></g><g stroke-opacity="1" stroke="#6759ff" transform="matrix(1,0,0,1,521.8820831272228,220.24283031816478)"><path d="M77.2826313154616,-9.34384503019281C82.00545080615804,21.96653394320349,81.15468673562191,72.83707799950564,56.57774613609909,85.23131660355023C32.00080553657626,97.62555520759481,-47.72496778385347,74.22463190228999,-70.17901228167538,65.0215865940747C-92.6330567794973,55.81854128585943,-77.65712183117819,47.34353823004,-78.14652085083235,30.013044754258587C-78.6359198704865,12.682551278477181,-90.84663140672582,-16.85404059543271,-73.11540639960035,-38.96137426061374C-55.38418139247487,-61.06870792579477,3.174489572743475,-107.5672121085644,28.240829191920465,-102.63095723682758C53.307168811097455,-97.69470236509076,72.55981182476516,-40.65422400358911,77.2826313154616,-9.34384503019281C82.00545080615804,21.96653394320349,81.15468673562191,72.83707799950564,56.57774613609909,85.23131660355023" fill-opacity="0.25" fill="#6759ff"/></g><g stroke-opacity="1" stroke="#6759ff" transform="matrix(1,0,0,1,528.6897880449319,296.63728262678393)"><path d="M132.34157538290225,-3.599679904323885C131.36609400071998,18.503906697715042,57.18858292276184,47.736771288085315,26.095047617517587,61.033361859054494C-4.998487687726669,74.32995243002367,-32.933991222691105,82.77873997334659,-54.21963644856327,76.17986352149117C-75.50528167443544,69.58098706963575,-106.03333247313239,49.04303968008931,-101.61882373771542,21.440103147922017C-97.20431500229844,-6.162833384245271,-49.99371064411589,-73.93304552132903,-27.73258403606144,-89.43775567151255C-5.471457428006989,-104.94246582169606,5.268909340783981,-85.89450371437715,31.947935910611264,-71.58815775317905C58.62696248043855,-57.281811791980935,133.31705676508452,-25.703266506362812,132.34157538290225,-3.599679904323885C131.36609400071998,18.503906697715042,57.18858292276184,47.736771288085315,26.095047617517587,61.033361859054494" fill-opacity="0.25" fill="#6759ff"/></g><g stroke-opacity="1" stroke="#6759ff" transform="matrix(1,0,0,1,523.6764013413275,417.78585381321795)"><path d="M136.93532990072288,4.173497908151909C138.18468458393542,32.479246198719295,82.80271610116563,83.98330341057351,48.828125000000014,102.49712008038145C14.853533898834392,121.01093675018939,-42.49804975405644,129.51429550057054,-66.91221670627085,115.25639792699951C-91.32638365848527,100.99850035342848,-102.70217537287661,54.29947866097067,-97.65687671328647,16.949734638955306C-92.61157805369632,-20.40000938306006,-59.805237017731876,-94.7942154880963,-36.640424748730005,-108.84206620509266C-13.475612479728134,-122.88991692208903,12.402704459149287,-86.1732970152303,41.33199690072477,-67.33736966302287C70.26128934230024,-48.501442310815435,135.68597521751033,-24.13225038241548,136.93532990072288,4.173497908151909C138.18468458393542,32.479246198719295,82.80271610116563,83.98330341057351,48.828125000000014,102.49712008038145" fill-opacity="0.25" fill="#6759ff"/></g><g stroke-opacity="1" stroke="#6759ff" transform="matrix(1,0,0,1,646.8233934269026,87.24809383749306)"><path d="M119.72538180411227,-8.44299874223941C118.67158901249141,26.92140844282448,87.73144215845943,73.50455176197289,55.80073471755019,89.0890774204531C23.870027276640958,104.6736030789333,-39.270408495024064,99.91233477871728,-71.85886284134314,85.06415520864176C-104.44731718766221,70.21597563856625,-143.1898517535383,28.27282475782765,-139.72999136036424,1.4210854715202004e-14C-136.27013096719017,-28.27282475782762,-84.74194762023868,-64.0565657233357,-51.09970048229874,-84.57279333832406C-17.45745334435881,-105.08902095331243,33.65264441954018,-135.78566478927766,62.12349146727535,-123.09736568993023C90.59433851501052,-110.40906659058278,120.77917459573314,-43.8074059273033,119.72538180411227,-8.44299874223941C118.67158901249141,26.92140844282448,87.73144215845943,73.50455176197289,55.80073471755019,89.0890774204531" fill-opacity="0.25" fill="#6759ff"/></g><g stroke-opacity="1" stroke="#6759ff" transform="matrix(1,0,0,1,641.4795429072835,213.93561415673213)"><path d="M116.33680453628087,-43.37159317653264C115.10866598993934,-13.51901837974442,55.545042864082404,86.58022812066547,24.5243596289324,107.67994895998277C-6.496323606217604,128.77966979930008,-55.01758516835382,101.1733900193683,-69.78729487461919,83.22673185937117C-84.55700458088457,65.28007369937404,-71.10807828364595,24.300758811952125,-64.09389860865984,1.4210854715202004e-14C-57.07971893367374,-24.300758811952097,-43.70006507730946,-50.671904375550405,-27.70221682470256,-62.5778210123415C-11.704368572095659,-74.48373764913259,7.886687346817663,-74.63653779338138,31.89319090698157,-71.43549982074657C55.89969446714548,-68.23446184811176,117.56494308262239,-73.22416797332086,116.33680453628087,-43.37159317653264C115.10866598993934,-13.51901837974442,55.545042864082404,86.58022812066547,24.5243596289324,107.67994895998277" fill-opacity="0.25" fill="#6759ff"/></g><g stroke-opacity="1" stroke="#6759ff" transform="matrix(1,0,0,1,591.5589311063565,325.3933536064483)"><path d="M100.50577103303135,1.0541175107556455C101.85347961632334,29.98450197404789,89.76665185405578,95.39965342926516,64.87766918188389,105.25901246568256C39.988686509712,115.11837150209996,-14.787450783200747,74.17931238842476,-48.82812499999997,60.21027172926007C-82.8687992167992,46.24123107009538,-139.36637611891146,40.51554790762766,-139.36637611891146,21.444768510694416C-139.36637611891146,2.373989113761173,-81.52109063350727,-39.25306084821184,-48.82812500000004,-54.2144046523394C-16.135159366492807,-69.17574845646695,31.902435009960026,-77.53471467458677,56.79141768213193,-68.32329431407092C81.68040035430383,-59.11187395355508,99.15806244973936,-27.8762669525366,100.50577103303135,1.0541175107556455C101.85347961632334,29.98450197404789,89.76665185405578,95.39965342926516,64.87766918188389,105.25901246568256" fill-opacity="0.25" fill="#6759ff"/></g><g stroke-opacity="1" stroke="#6759ff" transform="matrix(1,0,0,1,599.1241288487953,442.6786630935914)"><path d="M91.36590028315737,-24.324022178033253C94.97619616285245,15.763161587931435,78.06499593433429,82.08030419511117,58.261347261574514,107.60531605817101C38.45769858881473,133.13032792123084,-3.791424051623107,150.1383526294224,-27.455991753401335,128.82604900032578C-51.12055945517956,107.51374537122916,-85.65152242474038,15.503901218138097,-83.72605894909486,-20.26850571640869C-81.80059547344935,-56.04091265095548,-35.95748272161143,-67.03351247008689,-15.903210899528275,-85.80839260695495C4.151060922554876,-104.58327274382302,18.72138678628978,-143.16518160910405,36.599571983404054,-132.9177865376171C54.477757180518324,-122.67039146613016,87.7556044034623,-64.41120594399794,91.36590028315737,-24.324022178033253C94.97619616285245,15.763161587931435,78.06499593433429,82.08030419511117,58.261347261574514,107.60531605817101" fill-opacity="0.25" fill="#6759ff"/></g><g stroke-opacity="1" stroke="#6759ff" transform="matrix(1,0,0,1,715.4383088604139,59.10225380943666)"><path d="M97.65625,22.336513176659444C100.56699070579201,52.01501645203652,69.21641386699456,78.97036477751509,48.828125000000014,93.11389765777916C28.43983613300547,107.25743053804324,-4.171500011176672,117.83603699813602,-24.673483201967258,107.19771045824388C-45.17546639275784,96.55938391835173,-69.6276653626438,61.76662357260304,-74.1837741447435,29.28393841842629C-78.7398829268432,-3.1987467357504613,-69.60137837956405,-68.65822373133169,-52.01013589456548,-87.69840046681662C-34.418893409566905,-106.73857720230156,6.419283116153718,-103.29627426839598,31.363680765247963,-84.9571219944833C56.308078414342205,-66.61796972057063,94.74550929420799,-7.341990098717634,97.65625,22.336513176659444C100.56699070579201,52.01501645203652,69.21641386699456,78.97036477751509,48.828125000000014,93.11389765777916" fill-opacity="0.25" fill="#6759ff"/></g><g stroke-opacity="1" stroke="#6759ff" transform="matrix(1,0,0,1,743.7756275741892,188.74471526284833)"><path d="M103.27357761586853,20.261672712054285C110.42041813562363,44.93315651501102,79.31481032376621,54.27448750983386,51.37206842172679,63.456109479416305C23.429326519687372,72.63773144899875,-46.73906560660241,88.67986133090224,-64.38287379636796,75.35140452954894C-82.02668198613351,62.02294772819565,-56.81306373970855,13.337392169331512,-54.490780716866496,-16.51463132870345C-52.168497694024445,-46.36665482673841,-60.94614332932611,-92.4177094570574,-50.449175659315664,-103.76073645866084C-39.952207989305215,-115.10376346026429,-17.129433576001187,-105.24319486677663,8.491025303196182,-84.57279333832412C34.11148418239355,-63.9023918098716,96.12673709611343,-4.409811090902455,103.27357761586853,20.261672712054285C110.42041813562363,44.93315651501102,79.31481032376621,54.27448750983386,51.37206842172679,63.456109479416305" fill-opacity="0.25" fill="#6759ff"/></g><g stroke-opacity="1" stroke="#6759ff" transform="matrix(1,0,0,1,709.3281182153232,336.44511059723675)"><path d="M97.6656382193186,-42.479581591715814C98.27523687441713,-11.483888499098004,51.808540460178065,83.16457135169665,31.43166483260681,101.40136521738273C11.054789205035558,119.63815908306881,-3.1088184096858775,83.81313001320052,-24.595615546108917,66.94118160240066C-46.08241268253195,50.0692331916008,-100.93989965724279,23.537686224183766,-97.48911798593143,0.16967475258356757C-94.03833631462007,-23.19833671901663,-24.76812399956525,-59.14314254538258,-3.890925518240749,-73.26688722720053C16.986272963083753,-87.39063190901848,10.847978945755703,-89.70401094423823,27.774072902015593,-84.57279333832412C44.70016685827548,-79.44157573241,97.05603956422006,-73.47527468433363,97.6656382193186,-42.479581591715814C98.27523687441713,-11.483888499098004,51.808540460178065,83.16457135169665,31.43166483260681,101.40136521738273" fill-opacity="0.25" fill="#6759ff"/></g><g stroke-opacity="1" stroke="#6759ff" transform="matrix(1,0,0,1,731.1150211976714,417.58314600505224)"><path d="M97.65625,-21.375081854816905C103.01890077697696,12.298164743222358,85.87437002949162,73.41656088238209,60.81247934177355,87.39248085866002C35.75058865405549,101.36840083493796,-22.909995920676447,79.31598565901233,-52.7150941263084,62.48043800285072C-82.52019233194035,45.64489034668911,-118.66593807973622,10.436882610802584,-118.01810989201816,-13.620805078309601C-117.3702817043001,-37.67849276742179,-73.27057242865503,-65.02798918994473,-48.82812500000004,-81.8656881318224C-24.385677571345052,-98.70338707370006,4.222512179911767,-124.7287664424098,28.636574679911778,-114.64699872957556C53.05063717991179,-104.56523101674131,92.29359922302304,-55.04832845285617,97.65625,-21.375081854816905C103.01890077697696,12.298164743222358,85.87437002949162,73.41656088238209,60.81247934177355,87.39248085866002" fill-opacity="0.25" fill="#6759ff"/></g><g stroke-opacity="1" stroke="#6759ff" transform="matrix(1,0,0,1,828.1688936952809,90.06897175636351)"><path d="M80.70403391889556,-24.331927074507174C87.52590018195708,8.173799507267457,95.38364185157631,88.64496755438067,68.23588290837279,106.79575428985255C41.08812396516926,124.94654102532444,-53.34732486404705,99.38461534023375,-82.18251974032563,84.57279333832409C-111.01771461660421,69.76097133641443,-114.30162607134768,45.990720484802665,-104.77528634929868,17.924822278394558C-95.24894662724968,-10.141075928013546,-47.0378100212487,-66.12869132025956,-25.024481408031647,-83.82259590012453C-3.0111527948145955,-101.51650047998949,9.683266108849097,-98.15371667173143,27.304685330003633,-88.2386052007952C44.92610455115817,-78.32349372985898,73.88216765583404,-56.8376536562818,80.70403391889556,-24.331927074507174C87.52590018195708,8.173799507267457,95.38364185157631,88.64496755438067,68.23588290837279,106.79575428985255" fill-opacity="0.25" fill="#6759ff"/></g><g stroke-opacity="1" stroke="#6759ff" transform="matrix(1,0,0,1,854.2488734434422,169.650662142373)"><path d="M97.65625,42.864744527406835C99.34106521105765,78.35178849443324,103.60035947866683,95.92803272925187,75.12681938638259,95.71839962778002C46.653279294098354,95.50876652630816,-45.702630407521596,54.44783814595058,-73.18499055370543,41.606945918575754C-100.66735069988927,28.76605369120093,-90.63227983601259,36.376252260445085,-89.76734149072047,18.673046263531063C-88.90240314542835,0.9698402666170374,-93.79290541707896,-41.96613832325683,-67.99536048195276,-64.6122900629084C-42.19781554682656,-87.25844180255997,37.409326373044564,-135.11670327276423,65.01792812003669,-117.20386417437835C92.62652986702881,-99.29102507599248,95.97143478894235,7.37770056038044,97.65625,42.864744527406835C99.34106521105765,78.35178849443324,103.60035947866683,95.92803272925187,75.12681938638259,95.71839962778002" fill-opacity="0.25" fill="#6759ff"/></g><g stroke-opacity="1" stroke="#6759ff" transform="matrix(1,0,0,1,826.8262769356598,293.13488577987283)"><path d="M112.65774368966916,20.070955090517366C115.54135917982723,44.64679370018577,65.86283221132561,73.82248696368961,41.88993547928209,84.57279333832406C17.917038747238564,95.32309971295851,-6.893201373343306,102.33955492970937,-31.179636702591978,84.57279333832409C-55.46607203184065,66.80603174693881,-98.18461175235635,6.163154902787063,-103.82867649620995,-22.02777620998763C-109.47274124006356,-50.21870732276232,-86.44684500480423,-77.76371632004094,-65.04402516571362,-84.57279333832406C-43.64120532662301,-91.38187035660718,-5.028718937563458,-80.3228630578266,24.588242538333674,-62.88223831968635C54.2052040142308,-45.44161358154611,109.7741281995111,-4.504883519151033,112.65774368966916,20.070955090517366C115.54135917982723,44.64679370018577,65.86283221132561,73.82248696368961,41.88993547928209,84.57279333832406" fill-opacity="0.25" fill="#6759ff"/></g><g stroke-opacity="1" stroke="#6759ff" transform="matrix(1,0,0,1,837.1019609644043,440.8779091682031)"><path d="M81.27363205057293,-21.172726228103066C85.04050855204022,5.349173663289626,87.94511311681374,51.51528432339584,69.96097921351256,64.11660741088446C51.976845310211374,76.71793049837308,4.490523043485325,68.70008839064202,-26.631171369234195,54.43521229682865C-57.752865781953716,40.17033620301528,-113.6337817373489,-0.21323476183968637,-116.76918726280456,-21.472649151995757C-119.90459278826023,-42.73206354215183,-72.79842243322038,-60.86425024652846,-45.44360452196816,-73.12127404410778C-18.08878661071594,-85.3782978416871,26.24018077595193,-103.67288324013916,47.35972020470878,-95.0147919374717C68.47925963346563,-86.35670063480424,77.50675554910563,-47.69462611949576,81.27363205057293,-21.172726228103066C85.04050855204022,5.349173663289626,87.94511311681374,51.51528432339584,69.96097921351256,64.11660741088446" fill-opacity="0.25" fill="#6759ff"/></g></svg>