<svg xmlns="http://www.w3.org/2000/svg" viewBox="0 0 1200 800" width="1200" height="800"><path fill="#FFF" d="M0 0h1200v800H0z"/><g transform="translate(351.0 120.0) rotate(0.0 249.0 280.0) scale(0.34526460580210927 0.34507746989199073)"><svg width="1442.372" height="1622.824" viewBox="0 0 1442.372 1622.824"><path d="m1434.821 688.254-25.56 39.37c-5.8 8.61-15.24 14.67-26.35 15.8l-1085.01 110.66c-8.7.88-16.97-1.38-23.71-5.87-8.87-5.91-15.06-15.67-16.01-27.15l-41.05-497.88a35.992 35.992 0 0 1 6.35-23.62v-.01l25.86-39.79 37.85 20.62 1047.33-106.82c20.15-2.05 38.06 12.83 39.72 33.02l34.12 413.89 4.35 52.7z" fill="#6762FF"/><path d="m1434.821 688.254-25.56 39.37c-5.8 8.61-15.24 14.67-26.35 15.8l-1085.01 110.66c-8.7.88-16.97-1.38-23.71-5.87v-.01l23.03-42.2 279.99-282.18 831.15 96.65 4.35 52.7z" fill="#6762FF"/><path d="m606.775 202.844-8.469 8.459 12.629-1.309z" fill="#4c3f39"/><path d="M1408.912 703.424 323.904 814.082c-20.149 2.055-38.06-12.831-39.724-33.016l-41.053-497.88c-1.619-19.64 12.778-36.963 32.383-38.962l1085.008-110.658c20.149-2.055 38.06 12.831 39.724 33.016l41.053 497.88c1.619 19.64-12.778 36.963-32.383 38.962z" fill="#6762FF"/><path d="m1401.301 682.794-1049.08 105.98s-.02 0-.06.01l-.32.03c-.15.01-.34.03-.57.05l-16.09 1.63c-15.01 1.51-28.34-9.58-29.58-24.61l-39.66-480.97c-.96-11.63 7.57-21.89 19.18-23.06l1066.12-107.7c15.01-1.51 28.34 9.58 29.58 24.61l.43 5.27.01.01 39.22 475.69c.96 11.63-7.57 21.89-19.18 23.06z" fill="#efecdf"/><path d="M1381.251 184.034c-7.95-16.76-23.04-17.21-30.04-17.21s-1049 104-1049 104c-29 2-24 24-24 28s39 462 39 462c1.8 28.77 28.66 28.4 34.06 28.04l-16.09 1.63c-15.01 1.51-28.34-9.58-29.58-24.61l-39.66-480.97c-.96-11.63 7.57-21.89 19.18-23.06l1066.12-107.7c15.01-1.51 28.34 9.58 29.58 24.61z" fill="#dbd6c1"/><path d="m649.567 818.218 6.06 4.499 2.638-5.387z" fill="#332925"/><path d="m1017.779 159.483-407.33 41.703a6.367 6.367 0 0 0-5.695 6.886l2.055 23.631c.771 8.863 8.649 15.379 17.5 14.473l388.289-39.753c8.661-.887 15.008-8.561 14.254-17.234l-2.08-23.923a6.368 6.368 0 0 0-6.992-5.783zm51.653 536.954-386.049 38.605c-9.289.929-16.106 9.152-15.297 18.452l2.541 29.224 420-42-2.503-28.784c-.824-9.472-9.232-16.442-18.692-15.496z" fill="#5e514a"/><path d="m1075.627 780.717-420 42 15-40 420-42zm-377.416 787.607c0 15.39-6.62 29.23-17.17 38.83-9.33 8.49-21.72 13.67-35.33 13.67-28.99 0-52.5-23.51-52.5-52.5 0-18.98 10.08-35.61 25.17-44.83a52.29 52.29 0 0 1 27.33-7.67c28.99 0 52.5 23.51 52.5 52.5z" fill="#4c3f39"/><path d="M698.211 1568.324c0 15.39-6.62 29.23-17.17 38.83a52.29 52.29 0 0 1-27.33 7.67c-28.99 0-52.5-23.51-52.5-52.5 0-15.39 6.62-29.23 17.17-38.83a52.29 52.29 0 0 1 27.33-7.67c28.99 0 52.5 23.51 52.5 52.5z" fill="#5e514a"/><path d="M764.211 1496.324c0 20.9-12.21 38.94-29.89 47.39-6.85 3.28-14.51 5.11-22.61 5.11-28.99 0-52.5-23.51-52.5-52.5s23.51-52.5 52.5-52.5c14.66 0 27.92 6.01 37.44 15.71 9.31 9.47 15.06 22.46 15.06 36.79z" fill="#4c3f39"/><path d="M764.211 1496.324c0 20.9-12.21 38.94-29.89 47.39a47.99 47.99 0 0 1-14.11 2.11c-26.51 0-48-21.49-48-48s21.49-48 48-48c10.87 0 20.9 3.61 28.94 9.71 9.31 9.47 15.06 22.46 15.06 36.79z" fill="#5e514a"/><path d="M836.211 1430.324c0 21.25-12.63 39.56-30.79 47.81a52.317 52.317 0 0 1-21.71 4.69c-28.99 0-52.5-23.51-52.5-52.5s23.51-52.5 52.5-52.5c11.87 0 22.82 3.94 31.61 10.59 12.69 9.58 20.89 24.79 20.89 41.91z" fill="#4c3f39"/><path d="M836.211 1430.324c0 21.25-12.63 39.56-30.79 47.81-4.05 1.1-8.31 1.69-12.71 1.69-26.79 0-48.5-21.71-48.5-48.5s21.71-48.5 48.5-48.5c8.17 0 15.86 2.02 22.61 5.59 12.69 9.58 20.89 24.79 20.89 41.91z" fill="#5e514a"/><path d="M950.211 1498.324c0 19.48-10.61 36.48-26.37 45.54q-.01.01-.02.01c-7.69 4.42-16.6 6.95-26.11 6.95-28.99 0-52.5-23.51-52.5-52.5s23.51-52.5 52.5-52.5c11.48 0 22.1 3.69 30.74 9.94 13.18 9.54 21.76 25.05 21.76 42.56z" fill="#4c3f39"/><path d="M950.211 1498.324c0 19.48-10.61 36.48-26.37 45.54q-.01.01-.02.01a47.893 47.893 0 0 1-16.61 2.95c-26.51 0-48-21.49-48-48s21.49-48 48-48c7.63 0 14.84 1.78 21.24 4.94 13.18 9.54 21.76 25.05 21.76 42.56z" fill="#5e514a"/><path d="M962.211 1401.324c0 15.22-6.48 28.94-16.84 38.52-9.36 8.68-21.89 13.98-35.66 13.98-28.99 0-52.5-23.51-52.5-52.5s23.51-52.5 52.5-52.5c5.62 0 11.03.88 16.1 2.52 21.12 6.79 36.4 26.61 36.4 49.98z" fill="#4c3f39"/><path d="M962.211 1401.324c0 15.22-6.48 28.94-16.84 38.52-7.65 5.05-16.81 7.98-26.66 7.98-26.79 0-48.5-21.71-48.5-48.5s21.71-48.5 48.5-48.5c2.41 0 4.78.18 7.1.52 21.12 6.79 36.4 26.61 36.4 49.98z" fill="#5e514a"/><path d="M907.211 1369.324c0 26.79-20.08 48.91-46.01 52.1a52.302 52.302 0 0 1-3.99-20.1c0-26.79 20.08-48.91 46.01-52.1a52.302 52.302 0 0 1 3.99 20.1z" fill="#4c3f39"/><circle cx="915.711" cy="1304.324" fill="#4c3f39" r="52.5"/><path d="M968.211 1304.324c0 12.75-4.55 24.44-12.11 33.53-7.59 6.24-17.3 9.97-27.89 9.97-24.3 0-44-19.7-44-44s19.7-44 44-44c9.32 0 17.96 2.89 25.07 7.84 9.24 9.46 14.93 22.39 14.93 36.66z" fill="#5e514a"/><path d="M901.211 1365.324a52.24 52.24 0 0 1-12.94 34.5c-9.62 11.03-23.78 18-39.56 18-28.99 0-52.5-23.51-52.5-52.5s23.51-52.5 52.5-52.5c11.09 0 21.38 3.44 29.85 9.31 13.69 9.48 22.65 25.29 22.65 43.19z" fill="#4c3f39"/><path d="M901.211 1365.324a52.24 52.24 0 0 1-12.94 34.5c-8.39 7.46-19.44 12-31.56 12-26.23 0-47.5-21.27-47.5-47.5s21.27-47.5 47.5-47.5c7.88 0 15.31 1.92 21.85 5.31 13.69 9.48 22.65 25.29 22.65 43.19z" fill="#5e514a"/><path d="M1108.211 1430.324c0 13.84-5.36 26.42-14.11 35.8-9.58 10.28-23.24 16.7-38.39 16.7-28.99 0-52.5-23.51-52.5-52.5s23.51-52.5 52.5-52.5c6 0 11.77 1.01 17.14 2.87 20.58 7.1 35.36 26.64 35.36 49.63z" fill="#4c3f39"/><path d="M1108.211 1430.324c0 13.84-5.36 26.42-14.11 35.8a48.297 48.297 0 0 1-30.39 10.7c-26.79 0-48.5-21.71-48.5-48.5s21.71-48.5 48.5-48.5c3.12 0 6.18.3 9.14.87 20.58 7.1 35.36 26.64 35.36 49.63z" fill="#5e514a"/><path d="M1033.211 1365.324c0 9.42-2.48 18.25-6.83 25.89-9.02 15.89-26.09 26.61-45.67 26.61-28.99 0-52.5-23.51-52.5-52.5 0-25.65 18.41-47.01 42.73-51.59 3.16-.6 6.43-.91 9.77-.91 28.99 0 52.5 23.51 52.5 52.5z" fill="#4c3f39"/><path d="M1033.211 1365.324c0 9.42-2.48 18.25-6.83 25.89-9.06 11.35-23.02 18.61-38.67 18.61-27.34 0-49.5-22.16-49.5-49.5 0-21.45 13.64-39.72 32.73-46.59 3.16-.6 6.43-.91 9.77-.91 28.99 0 52.5 23.51 52.5 52.5z" fill="#5e514a"/><path d="M1175.211 1500.324a52.2 52.2 0 0 1-9.23 29.72c-9.46 13.76-25.31 22.78-43.27 22.78-28.99 0-52.5-23.51-52.5-52.5 0-26.33 19.39-48.14 44.66-51.91 2.56-.39 5.18-.59 7.84-.59 28.99 0 52.5 23.51 52.5 52.5z" fill="#4c3f39"/><path d="M1175.211 1500.324a52.2 52.2 0 0 1-9.23 29.72c-8.97 9.13-21.46 14.78-35.27 14.78-27.34 0-49.5-22.16-49.5-49.5 0-21.8 14.09-40.31 33.66-46.91 2.56-.39 5.18-.59 7.84-.59 28.99 0 52.5 23.51 52.5 52.5z" fill="#5e514a"/><path d="M1237.211 1570.324c0 11.47-3.68 22.07-9.92 30.7-9.53 13.21-25.05 21.8-42.58 21.8-28.99 0-52.5-23.51-52.5-52.5 0-28.48 22.68-51.66 50.96-52.47.51-.021 1.03-.03 1.54-.03 28.99 0 52.5 23.51 52.5 52.5z" fill="#4c3f39"/><path d="M1237.211 1570.324c0 11.47-3.68 22.07-9.92 30.7-8.82 8.55-20.84 13.8-34.08 13.8-27.06 0-49-21.94-49-49 0-23.62 16.71-43.34 38.96-47.97.51-.021 1.03-.03 1.54-.03 28.99 0 52.5 23.51 52.5 52.5z" fill="#5e514a"/><path d="M962.211 1205.324c0 23.19-15.04 42.87-35.89 49.82a52.411 52.411 0 0 1-16.61 2.68c-28.99 0-52.5-23.51-52.5-52.5s23.51-52.5 52.5-52.5c16.52 0 31.27 7.64 40.89 19.58a52.25 52.25 0 0 1 11.61 32.92z" fill="#4c3f39"/><path d="M962.211 1205.324c0 23.19-15.04 42.87-35.89 49.82-2.64.45-5.35.68-8.11.68-26.51 0-48-21.49-48-48s21.49-48 48-48c12.49 0 23.86 4.76 32.39 12.58a52.25 52.25 0 0 1 11.61 32.92z" fill="#5e514a"/><path d="M956.211 1105.324c0 25.41-18.06 46.61-42.04 51.45-3.38.69-6.88 1.05-10.46 1.05-28.99 0-52.5-23.51-52.5-52.5s23.51-52.5 52.5-52.5c13.73 0 26.23 5.27 35.58 13.9 10.4 9.59 16.92 23.34 16.92 38.6z" fill="#4c3f39"/><path d="M956.211 1105.324c0 25.41-18.06 46.61-42.04 51.45-25.56-1.06-45.96-22.12-45.96-47.95 0-26.51 21.49-48 48-48 8.37 0 16.24 2.14 23.08 5.9 10.4 9.59 16.92 23.34 16.92 38.6z" fill="#5e514a"/><path d="M948.211 1009.324c0 22.32-13.94 41.39-33.58 48.98a52.349 52.349 0 0 1-18.92 3.52c-28.99 0-52.5-23.51-52.5-52.5s23.51-52.5 52.5-52.5c15.85 0 30.06 7.03 39.68 18.14l.01.01c7.98 9.2 12.81 21.21 12.81 34.35z" fill="#4c3f39"/><path d="M948.211 1009.324c0 22.32-13.94 41.39-33.58 48.98-2.26.35-4.57.52-6.92.52-25.68 0-46.5-20.82-46.5-46.5s20.82-46.5 46.5-46.5c10.37 0 19.94 3.39 27.68 9.14l.01.01c7.98 9.2 12.81 21.21 12.81 34.35z" fill="#5e514a"/><path d="m919.511 960.015-83.821 8.438c-18.34 1.846-34.589-11.804-35.935-30.188l-9.544-130.441 149-15 9.675 132.224c1.294 17.688-11.729 33.191-29.375 34.967z" fill="#4c3f39"/><path d="m935.528 959.121-61.24 6.165c-24.694 2.486-46.573-15.894-48.384-40.647l-8.694-133.815 149-15 8.869 136.216c1.743 23.816-15.793 44.689-39.552 47.081z" fill="#5e514a"/><path d="m817.211 790.824-27 18.135 27.216-14.819 6.784-.316z" fill="#5e514a"/><path d="M386.209 695.324a1.5 1.5 0 0 1-.149-2.993l939.121-94.494a1.5 1.5 0 1 1 .301 2.985L386.36 695.316a1.564 1.564 0 0 1-.152.008z" fill="#FDAB8B"/><path d="M386.208 696.324a2.5 2.5 0 0 1-.25-4.987l368.5-37.5a2.5 2.5 0 1 1 .506 4.974l-368.5 37.5a2.466 2.466 0 0 1-.256.013z" fill="#ff6646"/><circle cx="757.211" cy="655.824" fill="#ff6646" r="10"/><g fill="#dbd6c1"><path d="m1347.729 383.656-247.871 24.319a8.605 8.605 0 0 1-9.412-7.806l-11.484-129.855a8.605 8.605 0 0 1 7.732-9.322l247.871-24.319a8.605 8.605 0 0 1 9.412 7.806l11.484 129.855a8.605 8.605 0 0 1-7.732 9.322zm17.574 173.202-247.871 24.319a8.605 8.605 0 0 1-9.412-7.806l-11.484-129.855a8.605 8.605 0 0 1 7.732-9.322l247.871-24.319a8.605 8.605 0 0 1 9.412 7.806l11.484 129.855a8.605 8.605 0 0 1-7.732 9.322zM365.584 400.806a1.5 1.5 0 0 1-.153-2.992l269-28a1.5 1.5 0 1 1 .31 2.984l-269 28a1.668 1.668 0 0 1-.157.008zm6.232 72.135a1.5 1.5 0 0 1-.153-2.992l217.834-22.674a1.5 1.5 0 1 1 .31 2.984l-217.834 22.674a1.668 1.668 0 0 1-.157.008zm162.069 55.651a1.5 1.5 0 0 1-.153-2.992l111.93-11.651a1.499 1.499 0 1 1 .31 2.984l-111.93 11.651a1.668 1.668 0 0 1-.157.008zm-157.069 16.349a1.5 1.5 0 0 1-.153-2.992l71.218-7.413a1.5 1.5 0 1 1 .31 2.984l-71.218 7.413a1.668 1.668 0 0 1-.157.008zm7.936 72.426a1.5 1.5 0 0 1-.153-2.992l126.564-13.174a1.5 1.5 0 1 1 .31 2.984l-126.564 13.174a1.668 1.668 0 0 1-.157.008z"/></g><path d="m273.181 647.654-18.75-19.89-12.09 1.2-21.66-262.72 29.06-2.89z" fill="#5D58EF"/><path d="M1404.471 217.864c-.62.15-1.26.26-1.92.32l-18.33 1.81-2.96-35.95-.01-.01-.43-5.27c-1.24-15.03-14.57-26.12-29.58-24.61l-231.98 23.43-1.45-19.27 242.71-24.75c20.15-2.05 38.06 12.83 39.72 33.02l4.229 51.28zm-1106.45 456.14-24.84-26.35-23.44-284.3 22.48-2.23z" fill="#6762FF"/><path d="m1384.221 219.994-72.78 7.2-13.18 45.54c-.14.48-.37.88-.66 1.21l-.03.03v.01l-14 14.99v.01h-.01c-1.33 1.43-3.87 1.33-4.95-.6l-30.66-54.9-109.08 10.89c-3.06.3-5.99-.39-8.47-1.81h-.01c-3.94-2.271-6.74-6.39-7.11-11.28l-4.02-53.7 231.98-23.43c15.01-1.51 28.34 9.58 29.58 24.61l.43 5.27.01.01zm-993.84 371.89h.01l-15.58 18.5c-.1.13-.21.25-.32.38l-.22.26-.01-.01c-2.95 3.3-7.1 5.56-11.85 6.03l-21.72 2.15 3.52 55.34c.1 1.53-.47 2.8-1.39 3.71l-15.75 18.75c-1.74 2-5.06 2.45-7.21.17l-21.84-23.16v-.01l-25.8-312.87 86.91-8.63c10.27-1.02 19.36 6.61 20.13 16.9l15.66 209c.38 5.12-1.39 9.91-4.54 13.49z" fill="#dbd6c1"/><path d="M1381.251 184.034c-7.95-16.76-23.04-17.21-30.04-17.21-2.11 0-98.02 9.43-231.07 22.6l-.88-11.84 231.98-23.43c15.01-1.51 28.34 9.58 29.58 24.61zm-1083.23 489.97v-.01l-25.8-312.87 11.021-1.09c7.1 84.65 20.06 237.22 27.76 327.73l-12.98-13.76zm1009.92-434.72-9.68 33.45c-.14.48-.37.88-.66 1.21l-.03.03v.01l-14 14.99v.01h-.01c-1.33 1.43-3.87 1.33-4.95-.6l-24.47-43.82z" fill="#cec8af"/><circle cx="822.211" cy="443.824" fill="#e64536" r="122"/><circle cx="834.211" cy="438.824" fill="#ff6646" r="122"/><path d="m891.051 439.01-80.682 56.188c-3.607 2.512-8.58.177-8.952-4.202l-8.319-97.967c-.372-4.38 4.137-7.519 8.115-5.652l89.002 41.779c3.979 1.868 4.444 7.342.837 9.854z" fill="#efecdf"/><path d="m404.391 575.884-15.58 18.5c-.1.13-.21.25-.32.38l-.22.26-.01-.01c-2.95 3.3-7.1 5.56-11.85 6.03l-38.82 3.85 1.11 17.4 1.6 25.18 17.11 14.07-16.34 19.45c-1.74 2-5.06 2.45-7.21.17l-65.43-69.4-232.59 23.1c-4.49.45-8.75-.76-12.19-3.12-4.44-3.04-7.51-7.99-7.94-13.78l-15.66-209c-.4-5.39 1.58-10.4 5.04-14.04h-.02l15.63-18.59 5.43 12.03 8.16-.81 322.84-32.06c10.27-1.02 19.36 6.61 20.13 16.9l15.02 200.53z" fill="#ed83a6"/><path d="m59.211 485.824-20.95 125.87-14.61 20.05c-4.44-3.04-7.51-7.99-7.94-13.78l-15.66-209c-.4-5.39 1.58-10.4 5.04-14.04h-.02l15.63-18.59 5.43 12.03 8.16-.81zm298.2 175.72-16.34 19.45c-1.74 2-5.06 2.45-7.21.17l-65.43-69.4 16-19 2.78-8.94 51.49 38.47 1.6 25.18z" fill="#e26998"/><path d="M373.132 336.489 32.555 370.316c-9.922.985-17.246 9.707-16.502 19.65l15.653 208.995c.771 10.29 9.864 17.926 20.132 16.907l232.592-23.101 65.426 69.396c3.111 3.299 8.644.896 8.356-3.629l-4.621-72.636 38.824-3.856c9.922-.985 17.246-9.707 16.502-19.65l-15.653-208.995c-.771-10.29-9.864-17.926-20.132-16.907z" fill="#ffc2d6"/><path d="M218.784 545.451a10.9 10.9 0 0 1-8.262.749l-.04-.012c-83.109-25.84-103.853-94.665-70.795-120.621 28.414-22.314 61.885 8.81 65.066 11.88 2.566-3.596 29.842-40.275 61.827-23.484 37.161 19.501 29.325 90.76-47.394 131.277l-.403.211z" fill="#f7f4e7"/><path d="m1437.481 186.764-12.6 13.59c-2.3 2.65-5.57 4.46-9.33 4.83l-101.05 9.99-3.8 13.13-5.81 20.05 5.71 12.59-14.03 15.03v.01h-.01c-1.33 1.43-3.87 1.33-4.95-.6l-30.66-54.9-109.08 10.89c-3.06.3-5.99-.39-8.47-1.81h-.01c-3.94-2.271-6.74-6.39-7.11-11.28l-12.12-161.81c-.3-4.08 1.16-7.88 3.73-10.68h-.02l13.7-14.66 6.8 8.99 15.7-1.56 236.55-23.49c7.95-.79 15 5.12 15.59 13.09l11.39 152.09z" fill="#FDAB8B"/><path d="m1169.211 70.824-14.01 142.19-11.8 16.55h-.01c-3.94-2.271-6.74-6.39-7.11-11.28l-12.12-161.81c-.3-4.08 1.16-7.88 3.73-10.68h-.02l13.7-14.66 6.8 8.99 15.7-1.56zm135.68 177.53 5.71 12.59-14.03 15.03v.01h-.01c-1.33 1.43-3.87 1.33-4.95-.6l-30.66-54.9 14-15 12.26-4.66 23.49 27.48z" fill="#696969"/><path d="m1414.626.071-263.685 26.19c-7.682.763-13.353 7.515-12.776 15.214l12.119 161.811c.597 7.967 7.637 13.879 15.587 13.09l109.08-10.886 30.661 54.892c1.335 2.389 4.89 1.983 5.65-.646l17.235-59.564 101.059-9.985c7.682-.763 13.353-7.515 12.776-15.214l-12.119-161.811c-.597-7.967-7.637-13.879-15.587-13.09z" fill="#FDAB8B"/><path d="M1255.121 104.814s21.485-18.762 21.043-31.08c-.234-6.51-3.109-27.023-.059-31.258 4.497-6.243 29.649-9.358 25.106 34.697l.064 15.989c43.992-11.447 45.77 7.288 38.391 13.805 6.107 3.056 6.927 11.703.784 15.921 4.665 3.192 7.58 10.914.784 15.921 4.597 2.472 8.4 19.56-31.058 17.49 0 0-23.474 13.134-49.996 1.807z" fill="#f7f4e7"/><rect fill="#58a65f" height="61.524" rx="3.617" transform="matrix(.99552411 -.09450795 .09450795 .99552411 -6.927 118.282)" width="28.953" x="1230.892" y="101.516"/></svg></g></svg>