<svg xmlns="http://www.w3.org/2000/svg" viewBox="0 0 1800 1800" width="1800" height="1800"><g transform="translate(308.0 748.0) rotate(0.0 584.5 130.0) scale(0.9996656379260658 0.9969210476873349)"><svg width="1169.391" height="260.803" viewBox="0 0 1169.391 260.803"><rect fill="#cbc8ff" height="231.003" rx="35.423" width="1138.509" y="29.8"/><rect fill="#fff" height="231.003" rx="35.423" width="1138.509" x="29.882" y="1"/><path d="M1132.968 233.003H65.306c-20.084 0-36.423-16.34-36.423-36.424V36.424C28.882 16.34 45.222 0 65.306 0h1067.662c20.084 0 36.423 16.34 36.423 36.424v160.155c0 20.084-16.34 36.424-36.423 36.424zM65.306 2C46.325 2 30.883 17.442 30.883 36.424v160.155c0 18.981 15.442 34.424 34.423 34.424h1067.662c18.981 0 34.423-15.442 34.423-34.424V36.424c0-18.981-15.442-34.424-34.423-34.424z" fill="#112c41"/><path d="M891.398 1h240.986c19.873 0 36.007 16.134 36.007 36.007v158.989c0 19.873-16.134 36.007-36.007 36.007H891.398z" fill="#dedffe"/><path d="M1132.384 233.003H891.398a1 1 0 0 1-1-1V1a1 1 0 0 1 1-1h240.986c20.406 0 37.007 16.602 37.007 37.007v158.989c0 20.405-16.601 37.007-37.007 37.007zm-239.986-2h239.986c19.303 0 35.007-15.704 35.007-35.007V37.007c0-19.303-15.704-35.007-35.007-35.007H892.398z" fill="#112c41"/><circle cx="1030.074" cy="116.345" fill="#fff" r="78.689"/><path d="M1030.074 196.033c-43.94 0-79.688-35.748-79.688-79.688s35.748-79.688 79.688-79.688 79.689 35.748 79.689 79.688-35.748 79.688-79.689 79.688zm0-157.377c-42.838 0-77.688 34.851-77.688 77.688s34.851 77.688 77.688 77.688 77.689-34.851 77.689-77.688-34.851-77.688-77.689-77.688z" fill="#112c41"/><ellipse cx="1030.074" cy="116.345" fill="#fff" rx="43.475" ry="78.689"/><g fill="#112c41"><path d="M1030.074 196.033c-24.524 0-44.475-35.748-44.475-79.688s19.952-79.688 44.475-79.688 44.475 35.748 44.475 79.688-19.952 79.688-44.475 79.688zm0-157.377c-23.421 0-42.475 34.851-42.475 77.688s19.054 77.688 42.475 77.688 42.475-34.851 42.475-77.688-19.054-77.688-42.475-77.688z"/><path d="M1029.652 195.542a1 1 0 0 1-1-1V37.708a1 1 0 1 1 2 0v156.834a1 1 0 0 1-1 1z"/><path d="M1098.568 156.001H961.547a1 1 0 1 1 0-2h137.021a1 1 0 1 1 0 2zm9.703-39.949H951.843a1 1 0 1 1 0-2h156.428a1 1 0 1 1 0 2zm-11.523-39.949H962.759a1 1 0 1 1 0-2h133.989a1 1 0 1 1 0 2z"/></g></svg></g><g transform="translate(1144.0 399.0) rotate(0.0 129.0 197.0) scale(1.8485480300066635 1.8529230566646444)"><svg width="139.569" height="212.637" viewBox="0 0 139.569 212.637"><path d="M45.707 143.433a12.508 12.508 0 0 1-11.532-17.316C45.152 99.8 66.554 90.96 83.752 83.855c17.423-7.2 26.639-11.617 29.3-25.809 2.941-15.674-6.648-25.584-16.6-29.633C85.549 23.98 70.891 25 62.716 37.29A12.5 12.5 0 1 1 41.9 23.441C55.531 2.959 81.833-4.519 105.869 5.255c23.632 9.611 36.394 32.679 31.757 57.4-5.286 28.175-26.934 37.119-44.326 44.306-15.587 6.439-29.05 12-36.049 28.781a12.506 12.506 0 0 1-11.544 7.691z" fill="#FFA9DC"/><path d="M45.706 144.433a13.5 13.5 0 0 1-12.454-18.7C44.388 99.037 66 90.107 83.367 82.931c17.1-7.063 26.136-11.386 28.7-25.069 2.83-15.082-6.409-24.623-16-28.522-10.521-4.281-24.663-3.312-32.523 8.5a13.5 13.5 0 0 1-22.476-14.952c13.9-20.883 40.7-28.513 65.177-18.559 24.085 9.8 37.091 33.31 32.363 58.511-5.385 28.706-27.31 37.765-44.927 45.044-15.381 6.357-28.671 11.845-35.511 28.243a13.47 13.47 0 0 1-12.464 8.306zM84.292 25.01a33.559 33.559 0 0 1 12.534 2.477c10.321 4.2 20.261 14.477 17.209 30.744-2.757 14.7-12.149 19.213-29.9 26.548-17.03 7.036-38.22 15.791-49.035 41.721a11.5 11.5 0 1 0 21.226 8.855c7.159-17.161 20.8-22.8 36.591-29.321 17.173-7.095 38.542-15.924 43.728-43.565 4.547-24.241-7.972-46.862-31.152-56.29C81.9-3.411 56.1 3.915 42.735 24a11.5 11.5 0 0 0 19.148 12.737c5.58-8.387 14.055-11.727 22.409-11.727z" fill="#112c41"/><circle cx="20.501" cy="192.136" fill="#FFA9DC" r="19.5"/><path d="M20.534 212.638q-.821 0-1.645-.065a20.445 20.445 0 1 1 1.645.065zm-.063-39a18.508 18.508 0 1 0 1.485.058q-.745-.061-1.485-.061z" fill="#112c41"/></svg></g><g transform="translate(406.0 1196.0) rotate(0.0 398.5 100.0) scale(0.9998318977737746 0.9961746891934969)"><svg width="797.134" height="200.768" viewBox="0 0 797.134 200.768"><g fill="#9dd9f4"><path d="M795.134 15.671H108.139a2 2 0 0 1 0-4h686.995a2 2 0 0 1 0 4z"/><circle cx="13.671" cy="13.671" r="13.671"/><path d="M795.134 102.384H108.139a2 2 0 0 1 0-4h686.995a2 2 0 0 1 0 4z"/><circle cx="13.671" cy="100.384" r="13.671"/><path d="M795.134 189.097H108.139a2 2 0 0 1 0-4h686.995a2 2 0 0 1 0 4z"/><circle cx="13.671" cy="187.097" r="13.671"/></g></svg></g><g transform="translate(508.0 617.0) rotate(0.0 456.5 399.5) scale(0.9990108370244577 0.999227130955031)"><svg width="913.904" height="799.618" viewBox="0 0 913.904 799.618"><g><path d="m462.943 448.085 406.682 344.307c9.259 7.838 22.357 8.169 31.879 1.598.456-.305.899-.626 1.329-.964a25.296 25.296 0 0 0 3.83-3.704c9.405-11.078 8.013-27.663-3.052-37.052L496.916 407.947c-10.061-8.519-24.692-8.18-34.31.311l-.083.065a26.009 26.009 0 0 0-2.662 2.706c-9.375 11.081-7.999 27.68 3.082 37.055Z" style="fill:#b2b0f7"/><path d="M886.635 799.612a27.3 27.3 0 0 1-17.656-6.457L462.296 448.848c-11.486-9.719-12.921-26.974-3.199-38.465a27.075 27.075 0 0 1 2.768-2.814l.125-.1c10.001-8.829 25.313-8.968 35.571-.286l406.696 344.323c5.559 4.717 8.951 11.313 9.553 18.573.602 7.268-1.665 14.331-6.385 19.89a26.291 26.291 0 0 1-3.975 3.843c-.45.354-.914.69-1.391 1.009a27.112 27.112 0 0 1-15.425 4.791ZM479.926 402.759c-5.977 0-11.944 2.087-16.659 6.25l-.13.104a25.33 25.33 0 0 0-2.517 2.567c-9.006 10.646-7.676 26.636 2.969 35.642l406.682 344.307c8.697 7.364 21.307 7.997 30.665 1.539a20.22 20.22 0 0 0 1.279-.927 24.283 24.283 0 0 0 3.679-3.558c4.38-5.158 6.481-11.703 5.923-18.438-.558-6.729-3.702-12.841-8.853-17.212L496.269 408.711c-4.69-3.972-10.521-5.952-16.343-5.952Z" style="fill:#112c41"/></g><path d="m462.943 448.085 406.682 344.307c9.259 7.838 22.357 8.169 31.879 1.598a22.512 22.512 0 0 0 2.629-2.68 26.315 26.315 0 0 0 4.002-6.38c-8.833 3.702-19.363 2.452-27.165-4.178L476.419 431.806c-9.109-7.715-12.346-24.54-13.814-23.548l-.083.065a26.009 26.009 0 0 0-2.662 2.706c-9.375 11.081-7.999 27.68 3.082 37.055Z" style="fill:#9797f7"/><path d="M886.635 799.612a27.3 27.3 0 0 1-17.656-6.457L462.296 448.848c-11.486-9.719-12.921-26.974-3.199-38.465a27.075 27.075 0 0 1 2.768-2.814l.125-.1c10.001-8.829 25.313-8.968 35.571-.286l406.696 344.323c5.559 4.717 8.951 11.313 9.553 18.573.602 7.268-1.665 14.331-6.385 19.89a26.291 26.291 0 0 1-3.975 3.843c-.45.354-.914.69-1.391 1.009a27.112 27.112 0 0 1-15.425 4.791ZM479.926 402.759c-5.977 0-11.944 2.087-16.659 6.25l-.13.104a25.33 25.33 0 0 0-2.517 2.567c-9.006 10.646-7.676 26.636 2.969 35.642l406.682 344.307c8.697 7.364 21.307 7.997 30.665 1.539a20.22 20.22 0 0 0 1.279-.927 24.283 24.283 0 0 0 3.679-3.558c4.38-5.158 6.481-11.703 5.923-18.438-.558-6.729-3.702-12.841-8.853-17.212L496.269 408.711c-4.69-3.972-10.521-5.952-16.343-5.952Z" style="fill:#112c41"/><path d="M58.991 440.31c50.227 63.946 123.399 99.252 198.669 103.383 65.637 3.647 132.815-16.383 187.799-61.71 112.003-92.388 131.107-258.612 43.057-374.048C396.452-12.747 223.783-34.438 104.807 59.014 28.753 118.751-6.769 210.921 2.421 300.495c5.032 49.378 23.661 97.918 56.57 139.816Zm35.744-28.076c-27.4-34.884-42.915-75.306-47.098-116.418-7.652-74.574 21.928-151.325 85.245-201.059 99.062-77.809 242.823-59.756 319.487 40.74 73.313 96.095 57.4 234.511-35.846 311.417-45.791 37.759-101.721 54.437-156.374 51.39-62.666-3.44-123.592-32.826-165.413-86.07Z" style="fill:#b2b0f7;stroke:#112c41;stroke-linecap:round;stroke-linejoin:round;stroke-width:2px"/><path d="M58.995 440.307c50.227 63.946 123.399 99.252 198.67 103.383 65.636 3.648 132.815-16.382 187.798-61.709a271.39 271.39 0 0 0 32.781-32.087 276.231 276.231 0 0 1-18.724 16.954c-54.984 45.327-122.162 65.357-187.798 61.709-75.27-4.131-148.442-39.437-198.669-103.383-32.909-41.897-51.538-90.437-56.57-139.815-7.47-72.844 14.623-147.379 64.022-204.822-59.23 59.092-86.227 140.528-78.08 219.954 5.032 49.378 23.661 97.918 56.57 139.816Zm386.173-21.696c80.136-78.75 90.561-207.4 21.262-298.249-76.663-100.497-220.425-118.55-319.487-40.74-12.29 9.653-23.324 20.326-33.048 31.815a227.25 227.25 0 0 1 18.991-16.682c99.062-77.809 242.823-59.757 319.487 40.74 65.017 85.226 59.869 203.74-7.205 283.116Z" style="fill:#9797f7"/><path d="M58.991 440.31c50.227 63.946 123.399 99.252 198.669 103.383 65.637 3.647 132.815-16.383 187.799-61.71 112.003-92.388 131.107-258.612 43.057-374.048C396.452-12.747 223.783-34.438 104.807 59.014 28.753 118.751-6.769 210.921 2.421 300.495c5.032 49.378 23.661 97.918 56.57 139.816Zm35.744-28.076c-27.4-34.884-42.915-75.306-47.098-116.418-7.652-74.574 21.928-151.325 85.245-201.059 99.062-77.809 242.823-59.756 319.487 40.74 73.313 96.095 57.4 234.511-35.846 311.417-45.791 37.759-101.721 54.437-156.374 51.39-62.666-3.44-123.592-32.826-165.413-86.07Z" style="stroke:#112c41;stroke-linecap:round;stroke-linejoin:round;stroke-width:2px;fill:none"/></svg></g><g transform="translate(940.0 455.0) rotate(-16.55174903851282 -81.5 56.5) scale(-1.1089944210096612 1.0900917413492055)"><svg width="146.98" height="103.661" viewBox="0 0 146.98 103.661"><path d="M88.973 101.82 24.937 31.925A4.38 4.38 0 0 0 18 32.29L2.217 53.644c-2.417 3.17-.893 5.451 1.607 6.7l84.557 42.261a.5.5 0 0 0 .592-.785z" fill="#ffe993"/><path d="M88.613 103.662a1.513 1.513 0 0 1-.679-.163L3.377 61.239a5.659 5.659 0 0 1-3.27-3.625 5.45 5.45 0 0 1 1.315-4.576L17.2 31.7a5.367 5.367 0 0 1 4.071-2.3 5.521 5.521 0 0 1 4.4 1.846l64.036 69.9a1.5 1.5 0 0 1-1.1 2.518zM21.57 31.395c-.061 0-.123 0-.184.005a3.414 3.414 0 0 0-2.576 1.479L3.02 54.239a3.61 3.61 0 0 0-.964 2.922 3.9 3.9 0 0 0 2.215 2.289l82.137 41.05L24.2 32.6a3.586 3.586 0 0 0-2.631-1.206z" fill="#112c41"/><path d="m80.827 1.737-18.268 8.787a4.35 4.35 0 0 0-1.743 6.625l43.46 62.474a.5.5 0 0 0 .9-.4L87.151 4.735C86.478 1.95 84.8-.186 80.827 1.737z" fill="#ffe993"/><path d="M104.677 80.842a1.484 1.484 0 0 1-1.222-.648L60 17.721a5.58 5.58 0 0 1-.871-4.631 5.369 5.369 0 0 1 3.013-3.472L80.394.836C82.323-.1 83.982-.249 85.325.385s2.292 2.021 2.8 4.114l18.021 74.486a1.481 1.481 0 0 1-.843 1.721 1.515 1.515 0 0 1-.626.136zM83.537 2a5.416 5.416 0 0 0-2.274.637l-18.27 8.789a3.413 3.413 0 0 0-1.937 2.184 3.582 3.582 0 0 0 .582 2.969l41.935 60.283L86.18 4.97c-.358-1.476-.932-2.41-1.708-2.777A2.168 2.168 0 0 0 83.537 2z" fill="#112c41"/><path d="m121.879 16.5 19.189-1.189c3.1-.192 5.732 1.5 4.674 5.7l-16.36 61.61a.5.5 0 0 1-.976-.041l-10.722-60.755c-.471-2.671.116-5.011 4.195-5.325z" fill="#ffe993"/><path d="M128.9 84h-.066a1.49 1.49 0 0 1-1.413-1.238L116.7 22a5.587 5.587 0 0 1 .758-4.582A5.789 5.789 0 0 1 121.8 15.5h.015l19.19-1.189a5.717 5.717 0 0 1 4.918 1.777c.731.88 1.461 2.492.787 5.168L130.349 82.88A1.491 1.491 0 0 1 128.9 84zm-6.952-66.5a3.949 3.949 0 0 0-2.91 1.146 3.781 3.781 0 0 0-.369 3.009L129 80.176l15.778-59.42a3.91 3.91 0 0 0-.388-3.39 3.854 3.854 0 0 0-3.257-1.058z" fill="#112c41"/></svg></g></svg>